<?xml version="1.0" encoding="UTF-8" standalone="no"?>
<!-- Created with Inkscape (http://www.inkscape.org/) -->

<svg
   xmlns:dc="http://purl.org/dc/elements/1.1/"
   xmlns:cc="http://creativecommons.org/ns#"
   xmlns:rdf="http://www.w3.org/1999/02/22-rdf-syntax-ns#"
   xmlns:svg="http://www.w3.org/2000/svg"
   xmlns="http://www.w3.org/2000/svg"
   version="1.1"
   width="1800"
   height="400"
   id="svg2"
   xml:space="preserve"><metadata
     id="metadata8"><rdf:RDF><cc:Work
         rdf:about=""><dc:format>image/svg+xml</dc:format><dc:type
           rdf:resource="http://purl.org/dc/dcmitype/StillImage" /><dc:title></dc:title></cc:Work></rdf:RDF></metadata><defs
     id="defs6"><clipPath
       id="clipPath100"><path
         d="m 0,0 1440,0 0,320 L 0,320 0,0 z"
         id="path102" /></clipPath><mask
       id="mask104"><g
         id="g106"><g
           clip-path="url(#clipPath100)"
           id="g108"><path
             d="m 0,0 1440,0 0,320 L 0,320 0,0 z"
             id="path110"
             style="fill:#000000;fill-opacity:0.2;fill-rule:nonzero;stroke:none" /></g></g></mask><clipPath
       id="clipPath116"><path
         d="m 0,0 1440,0 0,320 L 0,320 0,0 z"
         id="path118" /></clipPath><clipPath
       id="clipPath120"><path
         d="m 0,0 1440,0 0,320 L 0,320 0,0 z"
         id="path122" /></clipPath><pattern
       id="pattern124"
       height="320"
       width="1440"
       y="0"
       x="0"
       patternUnits="userSpaceOnUse"><g
         id="g126" /><g
         id="g128"><g
           id="g130"
           clip-path="url(#clipPath120)"><g
             id="g132"><path
               id="path134"
               style="fill:#000000;fill-opacity:1;fill-rule:nonzero;stroke:none"
               d="m 323.945,218.777 c 6.078,-8.867 -1.269,-10.64 -12.543,-10.515 -11.277,0.129 -14.886,-0.379 -16.218,1.84 -1.329,2.214 0.699,-4.309 2.789,-4.625 2.089,-0.317 21.535,-0.508 26.289,1.394 4.75,1.899 5.004,3.418 3.609,6.965 -1.394,3.551 -4.117,5.004 -3.926,4.941 z" /></g></g></g></pattern><clipPath
       id="clipPath170"><path
         d="m 0,0 1440,0 0,320 L 0,320 0,0 z"
         id="path172" /></clipPath><mask
       id="mask174"><g
         id="g176"><g
           clip-path="url(#clipPath170)"
           id="g178"><path
             d="m 0,0 1440,0 0,320 L 0,320 0,0 z"
             id="path180"
             style="fill:#000000;fill-opacity:0.2;fill-rule:nonzero;stroke:none" /></g></g></mask><clipPath
       id="clipPath186"><path
         d="m 0,0 1440,0 0,320 L 0,320 0,0 z"
         id="path188" /></clipPath><clipPath
       id="clipPath190"><path
         d="m 0,0 1440,0 0,320 L 0,320 0,0 z"
         id="path192" /></clipPath><pattern
       id="pattern194"
       height="320"
       width="1440"
       y="0"
       x="0"
       patternUnits="userSpaceOnUse"><g
         id="g196" /><g
         id="g198"><g
           id="g200"
           clip-path="url(#clipPath190)"><g
             id="g202"><path
               id="path204"
               style="fill:#000000;fill-opacity:1;fill-rule:nonzero;stroke:none"
               d="m 350.438,218.777 c 6.082,-8.867 -1.266,-10.64 -12.543,-10.515 -11.278,0.129 -14.887,-0.379 -16.215,1.84 -1.332,2.214 0.695,-4.309 2.785,-4.625 2.09,-0.317 21.539,-0.508 26.289,1.394 4.75,1.899 5.004,3.418 3.609,6.965 -1.39,3.551 -4.117,5.004 -3.925,4.941 z" /></g></g></g></pattern><clipPath
       id="clipPath226"><path
         d="m 0,0 1440,0 0,320 L 0,320 0,0 z"
         id="path228" /></clipPath><mask
       id="mask230"><g
         id="g232"><g
           clip-path="url(#clipPath226)"
           id="g234"><path
             d="m 0,0 1440,0 0,320 L 0,320 0,0 z"
             id="path236"
             style="fill:#000000;fill-opacity:0.2;fill-rule:nonzero;stroke:none" /></g></g></mask><clipPath
       id="clipPath242"><path
         d="m 0,0 1440,0 0,320 L 0,320 0,0 z"
         id="path244" /></clipPath><clipPath
       id="clipPath246"><path
         d="m 0,0 1440,0 0,320 L 0,320 0,0 z"
         id="path248" /></clipPath><pattern
       id="pattern250"
       height="320"
       width="1440"
       y="0"
       x="0"
       patternUnits="userSpaceOnUse"><g
         id="g252" /><g
         id="g254"><g
           id="g256"
           clip-path="url(#clipPath246)"><g
             id="g258"><path
               id="path260"
               style="fill:#000000;fill-opacity:1;fill-rule:nonzero;stroke:none"
               d="m 81.828,141.145 c 7.988,-11.653 -1.664,-13.985 -16.48,-13.817 -14.817,0.164 -19.563,-0.5 -21.313,2.414 -1.746,2.914 0.918,-5.66 3.664,-6.078 2.746,-0.414 28.301,-0.664 34.543,1.832 6.242,2.496 6.578,4.496 4.746,9.156 -1.832,4.66 -5.41,6.575 -5.16,6.493 z" /></g></g></g></pattern><clipPath
       id="clipPath296"><path
         d="m 0,0 1440,0 0,320 L 0,320 0,0 z"
         id="path298" /></clipPath><mask
       id="mask300"><g
         id="g302"><g
           clip-path="url(#clipPath296)"
           id="g304"><path
             d="m 0,0 1440,0 0,320 L 0,320 0,0 z"
             id="path306"
             style="fill:#000000;fill-opacity:0.2;fill-rule:nonzero;stroke:none" /></g></g></mask><clipPath
       id="clipPath312"><path
         d="m 0,0 1440,0 0,320 L 0,320 0,0 z"
         id="path314" /></clipPath><clipPath
       id="clipPath316"><path
         d="m 0,0 1440,0 0,320 L 0,320 0,0 z"
         id="path318" /></clipPath><pattern
       id="pattern320"
       height="320"
       width="1440"
       y="0"
       x="0"
       patternUnits="userSpaceOnUse"><g
         id="g322" /><g
         id="g324"><g
           id="g326"
           clip-path="url(#clipPath316)"><g
             id="g328"><path
               id="path330"
               style="fill:#000000;fill-opacity:1;fill-rule:nonzero;stroke:none"
               d="m 116.641,141.145 c 7.992,-11.653 -1.664,-13.985 -16.481,-13.817 -14.816,0.164 -19.562,-0.5 -21.308,2.414 -1.75,2.914 0.914,-5.66 3.66,-6.078 2.746,-0.414 28.3,-0.664 34.547,1.832 6.242,2.496 6.574,4.496 4.742,9.156 -1.832,4.66 -5.41,6.575 -5.16,6.493 z" /></g></g></g></pattern><clipPath
       id="clipPath352"><path
         d="m 0,0 1440,0 0,320 L 0,320 0,0 z"
         id="path354" /></clipPath><mask
       id="mask356"><g
         id="g358"><g
           clip-path="url(#clipPath352)"
           id="g360"><path
             d="m 0,0 1440,0 0,320 L 0,320 0,0 z"
             id="path362"
             style="fill:#000000;fill-opacity:0.2;fill-rule:nonzero;stroke:none" /></g></g></mask><clipPath
       id="clipPath368"><path
         d="m 0,0 1440,0 0,320 L 0,320 0,0 z"
         id="path370" /></clipPath><clipPath
       id="clipPath372"><path
         d="m 0,0 1440,0 0,320 L 0,320 0,0 z"
         id="path374" /></clipPath><pattern
       id="pattern376"
       height="320"
       width="1440"
       y="0"
       x="0"
       patternUnits="userSpaceOnUse"><g
         id="g378" /><g
         id="g380"><g
           id="g382"
           clip-path="url(#clipPath372)"><g
             id="g384"><path
               id="path386"
               style="fill:#000000;fill-opacity:1;fill-rule:nonzero;stroke:none"
               d="m 134.754,269.227 c 5.066,-7.391 -1.055,-8.868 -10.449,-8.762 -9.395,0.105 -12.407,-0.317 -13.512,1.531 -1.109,1.844 0.578,-3.59 2.32,-3.855 1.742,-0.262 17.946,-0.422 21.903,1.164 3.961,1.582 4.172,2.847 3.011,5.804 -1.164,2.953 -3.433,4.168 -3.273,4.118 z" /></g></g></g></pattern><clipPath
       id="clipPath422"><path
         d="m 0,0 1440,0 0,320 L 0,320 0,0 z"
         id="path424" /></clipPath><mask
       id="mask426"><g
         id="g428"><g
           clip-path="url(#clipPath422)"
           id="g430"><path
             d="m 0,0 1440,0 0,320 L 0,320 0,0 z"
             id="path432"
             style="fill:#000000;fill-opacity:0.2;fill-rule:nonzero;stroke:none" /></g></g></mask><clipPath
       id="clipPath438"><path
         d="m 0,0 1440,0 0,320 L 0,320 0,0 z"
         id="path440" /></clipPath><clipPath
       id="clipPath442"><path
         d="m 0,0 1440,0 0,320 L 0,320 0,0 z"
         id="path444" /></clipPath><pattern
       id="pattern446"
       height="320"
       width="1440"
       y="0"
       x="0"
       patternUnits="userSpaceOnUse"><g
         id="g448" /><g
         id="g450"><g
           id="g452"
           clip-path="url(#clipPath442)"><g
             id="g454"><path
               id="path456"
               style="fill:#000000;fill-opacity:1;fill-rule:nonzero;stroke:none"
               d="m 156.828,269.227 c 5.067,-7.391 -1.055,-8.868 -10.449,-8.762 -9.399,0.105 -12.406,-0.317 -13.512,1.531 -1.109,1.844 0.578,-3.59 2.321,-3.855 1.742,-0.262 17.945,-0.422 21.902,1.164 3.961,1.582 4.172,2.847 3.008,5.804 -1.16,2.953 -3.43,4.168 -3.27,4.118 z" /></g></g></g></pattern><clipPath
       id="clipPath478"><path
         d="m 0,0 1440,0 0,320 L 0,320 0,0 z"
         id="path480" /></clipPath><mask
       id="mask482"><g
         id="g484"><g
           clip-path="url(#clipPath478)"
           id="g486"><path
             d="m 0,0 1440,0 0,320 L 0,320 0,0 z"
             id="path488"
             style="fill:#000000;fill-opacity:0.2;fill-rule:nonzero;stroke:none" /></g></g></mask><clipPath
       id="clipPath494"><path
         d="m 0,0 1440,0 0,320 L 0,320 0,0 z"
         id="path496" /></clipPath><clipPath
       id="clipPath498"><path
         d="m 0,0 1440,0 0,320 L 0,320 0,0 z"
         id="path500" /></clipPath><pattern
       id="pattern502"
       height="320"
       width="1440"
       y="0"
       x="0"
       patternUnits="userSpaceOnUse"><g
         id="g504" /><g
         id="g506"><g
           id="g508"
           clip-path="url(#clipPath498)"><g
             id="g510"><path
               id="path512"
               style="fill:#000000;fill-opacity:1;fill-rule:nonzero;stroke:none"
               d="m 225.184,53.727 c 10.726,-15.641 -2.235,-18.77 -22.122,-18.547 -19.886,0.222 -26.257,-0.672 -28.601,3.238 -2.348,3.91 1.227,-7.598 4.914,-8.156 3.687,-0.559 37.988,-0.891 46.367,2.461 8.379,3.351 8.828,6.031 6.371,12.289 -2.461,6.258 -7.265,8.828 -6.929,8.715 z" /></g></g></g></pattern><clipPath
       id="clipPath548"><path
         d="m 0,0 1440,0 0,320 L 0,320 0,0 z"
         id="path550" /></clipPath><mask
       id="mask552"><g
         id="g554"><g
           clip-path="url(#clipPath548)"
           id="g556"><path
             d="m 0,0 1440,0 0,320 L 0,320 0,0 z"
             id="path558"
             style="fill:#000000;fill-opacity:0.2;fill-rule:nonzero;stroke:none" /></g></g></mask><clipPath
       id="clipPath564"><path
         d="m 0,0 1440,0 0,320 L 0,320 0,0 z"
         id="path566" /></clipPath><clipPath
       id="clipPath568"><path
         d="m 0,0 1440,0 0,320 L 0,320 0,0 z"
         id="path570" /></clipPath><pattern
       id="pattern572"
       height="320"
       width="1440"
       y="0"
       x="0"
       patternUnits="userSpaceOnUse"><g
         id="g574" /><g
         id="g576"><g
           id="g578"
           clip-path="url(#clipPath568)"><g
             id="g580"><path
               id="path582"
               style="fill:#000000;fill-opacity:1;fill-rule:nonzero;stroke:none"
               d="m 271.914,53.727 c 10.727,-15.641 -2.234,-18.77 -22.121,-18.547 -19.891,0.222 -26.258,-0.672 -28.605,3.238 -2.344,3.91 1.23,-7.598 4.917,-8.156 3.688,-0.559 37.989,-0.891 46.368,2.461 8.379,3.351 8.824,6.031 6.367,12.289 -2.457,6.258 -7.262,8.828 -6.926,8.715 z" /></g></g></g></pattern><clipPath
       id="clipPath604"><path
         d="m 0,0 1440,0 0,320 L 0,320 0,0 z"
         id="path606" /></clipPath><mask
       id="mask608"><g
         id="g610"><g
           clip-path="url(#clipPath604)"
           id="g612"><path
             d="m 0,0 1440,0 0,320 L 0,320 0,0 z"
             id="path614"
             style="fill:#000000;fill-opacity:0.2;fill-rule:nonzero;stroke:none" /></g></g></mask><clipPath
       id="clipPath620"><path
         d="m 0,0 1440,0 0,320 L 0,320 0,0 z"
         id="path622" /></clipPath><clipPath
       id="clipPath624"><path
         d="m 0,0 1440,0 0,320 L 0,320 0,0 z"
         id="path626" /></clipPath><pattern
       id="pattern628"
       height="320"
       width="1440"
       y="0"
       x="0"
       patternUnits="userSpaceOnUse"><g
         id="g630" /><g
         id="g632"><g
           id="g634"
           clip-path="url(#clipPath624)"><g
             id="g636"><path
               id="path638"
               style="fill:#000000;fill-opacity:1;fill-rule:nonzero;stroke:none"
               d="m 502.84,256.66 c 5.199,-7.582 -1.082,-9.098 -10.723,-8.992 -9.64,0.109 -12.73,-0.324 -13.867,1.57 -1.137,1.899 0.598,-3.679 2.383,-3.953 1.789,-0.269 18.414,-0.433 22.476,1.192 4.063,1.625 4.282,2.925 3.09,5.957 -1.191,3.035 -3.523,4.281 -3.359,4.226 z" /></g></g></g></pattern><clipPath
       id="clipPath674"><path
         d="m 0,0 1440,0 0,320 L 0,320 0,0 z"
         id="path676" /></clipPath><mask
       id="mask678"><g
         id="g680"><g
           clip-path="url(#clipPath674)"
           id="g682"><path
             d="m 0,0 1440,0 0,320 L 0,320 0,0 z"
             id="path684"
             style="fill:#000000;fill-opacity:0.2;fill-rule:nonzero;stroke:none" /></g></g></mask><clipPath
       id="clipPath690"><path
         d="m 0,0 1440,0 0,320 L 0,320 0,0 z"
         id="path692" /></clipPath><clipPath
       id="clipPath694"><path
         d="m 0,0 1440,0 0,320 L 0,320 0,0 z"
         id="path696" /></clipPath><pattern
       id="pattern698"
       height="320"
       width="1440"
       y="0"
       x="0"
       patternUnits="userSpaceOnUse"><g
         id="g700" /><g
         id="g702"><g
           id="g704"
           clip-path="url(#clipPath694)"><g
             id="g706"><path
               id="path708"
               style="fill:#000000;fill-opacity:1;fill-rule:nonzero;stroke:none"
               d="m 525.492,256.66 c 5.199,-7.582 -1.082,-9.098 -10.722,-8.992 -9.641,0.109 -12.731,-0.324 -13.868,1.57 -1.136,1.899 0.598,-3.679 2.383,-3.953 1.789,-0.269 18.418,-0.433 22.477,1.192 4.062,1.625 4.281,2.925 3.09,5.957 -1.192,3.035 -3.52,4.281 -3.36,4.226 z" /></g></g></g></pattern><clipPath
       id="clipPath730"><path
         d="m 0,0 1440,0 0,320 L 0,320 0,0 z"
         id="path732" /></clipPath><mask
       id="mask734"><g
         id="g736"><g
           clip-path="url(#clipPath730)"
           id="g738"><path
             d="m 0,0 1440,0 0,320 L 0,320 0,0 z"
             id="path740"
             style="fill:#000000;fill-opacity:0.2;fill-rule:nonzero;stroke:none" /></g></g></mask><clipPath
       id="clipPath746"><path
         d="m 0,0 1440,0 0,320 L 0,320 0,0 z"
         id="path748" /></clipPath><clipPath
       id="clipPath750"><path
         d="m 0,0 1440,0 0,320 L 0,320 0,0 z"
         id="path752" /></clipPath><pattern
       id="pattern754"
       height="320"
       width="1440"
       y="0"
       x="0"
       patternUnits="userSpaceOnUse"><g
         id="g756" /><g
         id="g758"><g
           id="g760"
           clip-path="url(#clipPath750)"><g
             id="g762"><path
               id="path764"
               style="fill:#000000;fill-opacity:1;fill-rule:nonzero;stroke:none"
               d="m 453.883,89.5 c 8.055,-11.746 -1.68,-14.098 -16.613,-13.93 -14.938,0.168 -19.719,-0.504 -21.481,2.434 -1.762,2.937 0.922,-5.707 3.691,-6.125 2.77,-0.418 28.528,-0.672 34.821,1.848 6.293,2.515 6.629,4.531 4.785,9.226 -1.848,4.699 -5.457,6.629 -5.203,6.547 z" /></g></g></g></pattern><clipPath
       id="clipPath800"><path
         d="m 0,0 1440,0 0,320 L 0,320 0,0 z"
         id="path802" /></clipPath><mask
       id="mask804"><g
         id="g806"><g
           clip-path="url(#clipPath800)"
           id="g808"><path
             d="m 0,0 1440,0 0,320 L 0,320 0,0 z"
             id="path810"
             style="fill:#000000;fill-opacity:0.2;fill-rule:nonzero;stroke:none" /></g></g></mask><clipPath
       id="clipPath816"><path
         d="m 0,0 1440,0 0,320 L 0,320 0,0 z"
         id="path818" /></clipPath><clipPath
       id="clipPath820"><path
         d="m 0,0 1440,0 0,320 L 0,320 0,0 z"
         id="path822" /></clipPath><pattern
       id="pattern824"
       height="320"
       width="1440"
       y="0"
       x="0"
       patternUnits="userSpaceOnUse"><g
         id="g826" /><g
         id="g828"><g
           id="g830"
           clip-path="url(#clipPath820)"><g
             id="g832"><path
               id="path834"
               style="fill:#000000;fill-opacity:1;fill-rule:nonzero;stroke:none"
               d="m 488.977,89.5 c 8.054,-11.746 -1.68,-14.098 -16.614,-13.93 -14.937,0.168 -19.718,-0.504 -21.48,2.434 -1.762,2.937 0.922,-5.707 3.691,-6.125 2.77,-0.418 28.528,-0.672 34.821,1.848 6.293,2.515 6.628,4.531 4.781,9.226 -1.844,4.699 -5.453,6.629 -5.199,6.547 z" /></g></g></g></pattern></defs><g
     transform="matrix(1.25,0,0,-1.25,0,400)"
     id="g10"><g
       id="g12"><path
         d="m 150.961,121.02 -2.879,-2.719 230.281,-45.133 0.903,4.703 -228.305,43.149 z"
         id="path14"
         style="fill:#6ac1ff;fill-opacity:1;fill-rule:nonzero;stroke:none" /><path
         d="m 273.539,202.129 -127.601,-68.633 1.75,-3.152 126.8,69.601 -0.949,2.184 z"
         id="path16"
         style="fill:#6ac1ff;fill-opacity:1;fill-rule:nonzero;stroke:none" /><path
         d="m 495.461,235.555 -33.649,-148.098 3.528,1.461 32.801,146.402 -2.68,0.235 z"
         id="path18"
         style="fill:#6ac1ff;fill-opacity:1;fill-rule:nonzero;stroke:none" /><path
         d="m 122.863,248.445 -24,-106 4.699,-1.05 21.743,106.515 -2.442,0.535 z"
         id="path20"
         style="fill:#6ac1ff;fill-opacity:1;fill-rule:nonzero;stroke:none" /><path
         d="m 363.809,199.336 -2.321,-0.715 33.602,-114.402 3.449,1 -34.73,114.117 z"
         id="path22"
         style="fill:#6ac1ff;fill-opacity:1;fill-rule:nonzero;stroke:none" /><path
         d="m 117.672,110.348 -3.883,-0.903 25.602,-64.8 4.449,1.75 -26.168,63.953 z"
         id="path24"
         style="fill:#6ac1ff;fill-opacity:1;fill-rule:nonzero;stroke:none" /><g
         transform="matrix(1,0,0,-1,0,320)"
         id="g26"><path
           d="m 317.613,283.281 70.403,-28"
           id="path28"
           style="fill:none;stroke:#6ac1ff;stroke-width:4.80000019;stroke-linecap:butt;stroke-linejoin:miter;stroke-miterlimit:4;stroke-opacity:1;stroke-dasharray:none" /></g><path
         d="m 266.766,354.211 -0.75,-2.066 18.597,-137.801 2.375,0.324 -20.222,139.543 z"
         id="path30"
         style="fill:#6ac1ff;fill-opacity:1;fill-rule:nonzero;stroke:none" /><path
         d="m 488.727,387.996 -121.165,-175.25 1.977,-1.351 98.574,144.898 20.614,31.703 z"
         id="path32"
         style="fill:#6ac1ff;fill-opacity:1;fill-rule:nonzero;stroke:none" /><path
         d="m 655.926,323.965 -107.864,-74.469 0.75,-2.277 109.02,76.449 -1.906,0.297 z"
         id="path34"
         style="fill:#6ac1ff;fill-opacity:1;fill-rule:nonzero;stroke:none" /><path
         d="m 35.199,365.219 -1.137,-0.375 57,-102.625 2.102,1.176 -57.965,101.824 z"
         id="path36"
         style="fill:#6ac1ff;fill-opacity:1;fill-rule:nonzero;stroke:none" /><path
         d="m 455.395,242.621 -81.165,-35.254 0.778,-2.547 83.375,36.5 -2.988,1.301 z"
         id="path38"
         style="fill:#6ac1ff;fill-opacity:1;fill-rule:nonzero;stroke:none" /><g
         transform="matrix(1,0,0,-1,0,320)"
         id="g40"><path
           d="m 178.273,62.238 c 0,5.41 -20.109,9.797 -44.918,9.797 -24.812,0 -44.921,-4.387 -44.921,-9.797 0,-5.41 20.109,-9.797 44.921,-9.797 24.809,0 44.918,4.387 44.918,9.797 z"
           id="path42"
           style="fill:none;stroke:#6ac1ff;stroke-width:2.21834898;stroke-linecap:butt;stroke-linejoin:miter;stroke-miterlimit:4;stroke-opacity:1;stroke-dasharray:none" /></g><g
         transform="matrix(1,0,0,-1,0,320)"
         id="g44"><path
           d="m 172.449,62.238 c 0,3.676 -17.504,6.657 -39.094,6.657 -21.593,0 -39.093,-2.981 -39.093,-6.657 0,-3.675 17.5,-6.656 39.093,-6.656 21.59,0 39.094,2.981 39.094,6.656 z"
           id="path46"
           style="fill:none;stroke:#6ac1ff;stroke-width:2.21834898;stroke-linecap:butt;stroke-linejoin:miter;stroke-miterlimit:4;stroke-opacity:1;stroke-dasharray:none" /></g><g
         transform="matrix(1,0,0,-1,0,320)"
         id="g48"><path
           d="m 550.621,74.066 c 0,5.93 -22.035,10.735 -49.219,10.735 -27.179,0 -49.214,-4.805 -49.214,-10.735 0,-5.929 22.035,-10.734 49.214,-10.734 27.184,0 49.219,4.805 49.219,10.734 z"
           id="path50"
           style="fill:none;stroke:#6ac1ff;stroke-width:2.43039703;stroke-linecap:butt;stroke-linejoin:miter;stroke-miterlimit:4;stroke-opacity:1;stroke-dasharray:none" /></g><g
         transform="matrix(1,0,0,-1,0,320)"
         id="g52"><path
           d="m 544.234,74.066 c 0,4.028 -19.175,7.293 -42.832,7.293 -23.652,0 -42.828,-3.265 -42.828,-7.293 0,-4.027 19.176,-7.289 42.828,-7.289 23.657,0 42.832,3.262 42.832,7.289 z"
           id="path54"
           style="fill:none;stroke:#6ac1ff;stroke-width:2.43039703;stroke-linecap:butt;stroke-linejoin:miter;stroke-miterlimit:4;stroke-opacity:1;stroke-dasharray:none" /></g><g
         transform="matrix(1,0,0,-1,0,320)"
         id="g56"><path
           d="m 374.367,114.082 c 0,6.273 -23.328,11.363 -52.105,11.363 -28.774,0 -52.102,-5.09 -52.102,-11.363 0,-6.277 23.328,-11.367 52.102,-11.367 28.777,0 52.105,5.09 52.105,11.367 z"
           id="path58"
           style="fill:none;stroke:#6ac1ff;stroke-width:2.57300401;stroke-linecap:butt;stroke-linejoin:miter;stroke-miterlimit:4;stroke-opacity:1;stroke-dasharray:none" /></g><g
         transform="matrix(1,0,0,-1,0,320)"
         id="g60"><path
           d="m 367.605,114.082 c 0,4.262 -20.3,7.719 -45.343,7.719 -25.039,0 -45.344,-3.457 -45.344,-7.719 0,-4.266 20.305,-7.719 45.344,-7.719 25.043,0 45.343,3.453 45.343,7.719 z"
           id="path62"
           style="fill:none;stroke:#6ac1ff;stroke-width:2.57300401;stroke-linecap:butt;stroke-linejoin:miter;stroke-miterlimit:4;stroke-opacity:1;stroke-dasharray:none" /></g><g
         transform="matrix(1,0,0,-1,0,320)"
         id="g64"><path
           d="m 525.176,247.281 c 0,8.856 -32.914,16.035 -73.52,16.035 -40.601,0 -73.519,-7.179 -73.519,-16.035 0,-8.855 32.918,-16.035 73.519,-16.035 40.606,0 73.52,7.18 73.52,16.035 z"
           id="path66"
           style="fill:none;stroke:#6ac1ff;stroke-width:3.63063097;stroke-linecap:butt;stroke-linejoin:miter;stroke-miterlimit:4;stroke-opacity:1;stroke-dasharray:none" /></g><g
         transform="matrix(1,0,0,-1,0,320)"
         id="g68"><path
           d="m 515.641,247.281 c 0,6.016 -28.649,10.891 -63.985,10.891 -35.336,0 -63.98,-4.875 -63.98,-10.891 0,-6.015 28.644,-10.894 63.98,-10.894 35.336,0 63.985,4.879 63.985,10.894 z"
           id="path70"
           style="fill:none;stroke:#6ac1ff;stroke-width:3.63063097;stroke-linecap:butt;stroke-linejoin:miter;stroke-miterlimit:4;stroke-opacity:1;stroke-dasharray:none" /></g><g
         transform="matrix(1,0,0,-1,0,320)"
         id="g72"><path
           d="m 153.141,195.496 c 0,8.856 -32.918,16.035 -73.52,16.035 -40.605,0 -73.523,-7.179 -73.523,-16.035 0,-8.855 32.918,-16.035 73.523,-16.035 40.602,0 73.52,7.18 73.52,16.035 z"
           id="path74"
           style="fill:none;stroke:#6ac1ff;stroke-width:3.63063097;stroke-linecap:butt;stroke-linejoin:miter;stroke-miterlimit:4;stroke-opacity:1;stroke-dasharray:none" /></g><g
         transform="matrix(1,0,0,-1,0,320)"
         id="g76"><path
           d="m 143.602,195.496 c 0,6.016 -28.645,10.891 -63.981,10.891 -35.336,0 -63.984,-4.875 -63.984,-10.891 0,-6.016 28.648,-10.891 63.984,-10.891 35.336,0 63.981,4.875 63.981,10.891 z"
           id="path78"
           style="fill:none;stroke:#6ac1ff;stroke-width:3.63063097;stroke-linecap:butt;stroke-linejoin:miter;stroke-miterlimit:4;stroke-opacity:1;stroke-dasharray:none" /></g><g
         transform="matrix(1,0,0,-1,0,320)"
         id="g80"><path
           d="m 319.422,288.48 c 0,11.708 -43.52,21.2 -97.199,21.2 -53.684,0 -97.203,-9.492 -97.203,-21.2 0,-11.707 43.519,-21.199 97.203,-21.199 53.679,0 97.199,9.492 97.199,21.199 z"
           id="path82"
           style="fill:none;stroke:#6ac1ff;stroke-width:4.80000019;stroke-linecap:butt;stroke-linejoin:miter;stroke-miterlimit:4;stroke-opacity:1;stroke-dasharray:none" /></g><g
         transform="matrix(1,0,0,-1,0,320)"
         id="g84"><path
           d="m 306.812,288.48 c 0,7.954 -37.874,14.399 -84.589,14.399 -46.719,0 -84.59,-6.445 -84.59,-14.399 0,-7.953 37.871,-14.398 84.59,-14.398 46.715,0 84.589,6.445 84.589,14.398 z"
           id="path86"
           style="fill:none;stroke:#6ac1ff;stroke-width:4.80000019;stroke-linecap:butt;stroke-linejoin:miter;stroke-miterlimit:4;stroke-opacity:1;stroke-dasharray:none" /></g><g
         transform="matrix(1,0,0,-1,0,320)"
         id="g88"><path
           d="m 294.336,108.758 c 0,-7.094 8.504,-10.59 16.527,-10.461 8.024,0.125 18.539,4.734 18.539,11.195 0,6.461 -10.98,6.16 -18.539,6.16 -3.804,0 -10.726,0.481 -13.707,-1.207 -2.937,-1.668 -2.945,-5.687 -2.82,-5.687 z"
           id="path90"
           style="fill:#000000;fill-opacity:1;fill-rule:nonzero;stroke:#000000;stroke-width:3.80734992;stroke-linecap:butt;stroke-linejoin:round;stroke-miterlimit:4;stroke-opacity:1;stroke-dasharray:none" /></g><g
         transform="matrix(1,0,0,-1,0,320)"
         id="g92"><path
           d="m 294.336,108.758 c 0,-7.094 8.504,-10.59 16.527,-10.461 8.024,0.125 18.539,4.734 18.539,11.195 0,6.461 -10.98,6.16 -18.539,6.16 -3.804,0 -10.726,0.481 -13.707,-1.207 -2.937,-1.668 -2.945,-5.687 -2.82,-5.687 z"
           id="path94"
           style="fill:#a67e33;fill-opacity:1;fill-rule:nonzero;stroke:#000000;stroke-width:3.04588008;stroke-linecap:butt;stroke-linejoin:miter;stroke-miterlimit:4;stroke-opacity:1;stroke-dasharray:none" /></g><g
         id="g96"><g
           id="g98" /><g
           mask="url(#mask104)"
           id="g112"><g
             id="g114" /><g
             id="g136"><g
               clip-path="url(#clipPath116)"
               id="g138"><g
                 id="g140"><path
                   d="m 0,0 1440,0 0,320 L 0,320 0,0 z"
                   id="path142"
                   style="fill:url(#pattern124);fill-opacity:1;fill-rule:nonzero;stroke:none" /></g></g></g></g></g><g
         transform="matrix(1,0,0,-0.947826,0,320)"
         id="g144"><path
           d="m 354.066,84.7 c 0,18.53 -14.238,33.552 -31.804,33.552 -17.563,0 -31.801,-15.022 -31.801,-33.552 0,-18.533 14.238,-33.555 31.801,-33.555 17.566,0 31.804,15.022 31.804,33.555 z"
           id="path146"
           style="fill:#000000;fill-opacity:1;fill-rule:evenodd;stroke:#000000;stroke-width:5.23417997;stroke-linecap:butt;stroke-linejoin:round;stroke-miterlimit:4;stroke-opacity:1;stroke-dasharray:none" /></g><g
         transform="matrix(1,0,0,-0.947826,0,320)"
         id="g148"><path
           d="m 354.066,84.7 c 0,18.53 -14.238,33.552 -31.804,33.552 -17.563,0 -31.801,-15.022 -31.801,-33.552 0,-18.533 14.238,-33.555 31.801,-33.555 17.566,0 31.804,15.022 31.804,33.555 z"
           id="path150"
           style="fill:#ffa500;fill-opacity:1;fill-rule:evenodd;stroke:#000000;stroke-width:2.32630205;stroke-linecap:butt;stroke-linejoin:miter;stroke-miterlimit:4;stroke-opacity:1;stroke-dasharray:none" /></g><path
         d="m 349.484,253.801 c 0.184,-1.406 0.356,-2.824 0.356,-4.281 0,-18.137 -14.703,-32.875 -32.84,-32.875 -8.344,0 -15.863,3.218 -21.656,8.351 5.218,-9.531 15.289,-16.031 26.929,-16.031 16.993,0 30.715,13.758 30.715,30.75 0,5.097 -1.312,9.855 -3.504,14.086 z"
         id="path152"
         style="fill:#ff8c00;fill-opacity:1;fill-rule:evenodd;stroke:none" /><path
         d="m 308.867,237.145 c -0.168,-5.34 -2.562,-9.618 -5.351,-9.547 -2.786,0.07 -4.911,4.457 -4.743,9.8 0.168,5.344 2.567,9.618 5.352,9.547 2.789,-0.066 4.91,-4.457 4.742,-9.8 z"
         id="path154"
         style="fill:#000000;fill-opacity:1;fill-rule:evenodd;stroke:none" /><path
         d="m 322.18,237.145 c -0.168,-5.34 -2.563,-9.618 -5.352,-9.547 -2.785,0.07 -4.91,4.457 -4.742,9.8 0.168,5.344 2.566,9.618 5.352,9.547 2.789,-0.066 4.914,-4.457 4.742,-9.8 z"
         id="path156"
         style="fill:#000000;fill-opacity:1;fill-rule:evenodd;stroke:none" /><g
         transform="matrix(1,0,0,-1,0,320)"
         id="g158"><path
           d="m 320.832,108.758 c 0,-7.094 8.5,-10.59 16.523,-10.461 8.028,0.125 18.543,4.734 18.543,11.195 0,6.461 -10.984,6.16 -18.543,6.16 -3.804,0 -10.726,0.481 -13.707,-1.207 -2.937,-1.668 -2.941,-5.687 -2.816,-5.687 z"
           id="path160"
           style="fill:#000000;fill-opacity:1;fill-rule:nonzero;stroke:#000000;stroke-width:3.80734992;stroke-linecap:butt;stroke-linejoin:round;stroke-miterlimit:4;stroke-opacity:1;stroke-dasharray:none" /></g><g
         transform="matrix(1,0,0,-1,0,320)"
         id="g162"><path
           d="m 320.832,108.758 c 0,-7.094 8.5,-10.59 16.523,-10.461 8.028,0.125 18.543,4.734 18.543,11.195 0,6.461 -10.984,6.16 -18.543,6.16 -3.804,0 -10.726,0.481 -13.707,-1.207 -2.937,-1.668 -2.941,-5.687 -2.816,-5.687 z"
           id="path164"
           style="fill:#a67e33;fill-opacity:1;fill-rule:nonzero;stroke:#000000;stroke-width:3.04588008;stroke-linecap:butt;stroke-linejoin:miter;stroke-miterlimit:4;stroke-opacity:1;stroke-dasharray:none" /></g><g
         id="g166"><g
           id="g168" /><g
           mask="url(#mask174)"
           id="g182"><g
             id="g184" /><g
             id="g206"><g
               clip-path="url(#clipPath186)"
               id="g208"><g
                 id="g210"><path
                   d="m 0,0 1440,0 0,320 L 0,320 0,0 z"
                   id="path212"
                   style="fill:url(#pattern194);fill-opacity:1;fill-rule:nonzero;stroke:none" /></g></g></g></g></g><g
         transform="matrix(1,0,0,-1,0,320)"
         id="g214"><path
           d="m 42.926,188.758 c 0,-9.32 11.168,-13.914 21.715,-13.746 10.543,0.164 24.359,6.222 24.359,14.711 0,8.492 -14.43,8.093 -24.359,8.093 -5.004,0 -14.098,0.637 -18.012,-1.586 -3.859,-2.191 -3.871,-7.472 -3.703,-7.472 z"
           id="path216"
           style="fill:#000000;fill-opacity:1;fill-rule:nonzero;stroke:#000000;stroke-width:5.00299597;stroke-linecap:butt;stroke-linejoin:round;stroke-miterlimit:4;stroke-opacity:1;stroke-dasharray:none" /></g><g
         transform="matrix(1,0,0,-1,0,320)"
         id="g218"><path
           d="m 42.926,188.758 c 0,-9.32 11.168,-13.914 21.715,-13.746 10.543,0.164 24.359,6.222 24.359,14.711 0,8.492 -14.43,8.093 -24.359,8.093 -5.004,0 -14.098,0.637 -18.012,-1.586 -3.859,-2.191 -3.871,-7.472 -3.703,-7.472 z"
           id="path220"
           style="fill:#a67e33;fill-opacity:1;fill-rule:nonzero;stroke:#000000;stroke-width:4.00239706;stroke-linecap:butt;stroke-linejoin:miter;stroke-miterlimit:4;stroke-opacity:1;stroke-dasharray:none" /></g><g
         id="g222"><g
           id="g224" /><g
           mask="url(#mask230)"
           id="g238"><g
             id="g240" /><g
             id="g262"><g
               clip-path="url(#clipPath242)"
               id="g264"><g
                 id="g266"><path
                   d="m 0,0 1440,0 0,320 L 0,320 0,0 z"
                   id="path268"
                   style="fill:url(#pattern250);fill-opacity:1;fill-rule:nonzero;stroke:none" /></g></g></g></g></g><g
         transform="matrix(1,0,0,-0.947826,0,320)"
         id="g270"><path
           d="m 121.41,159.666 c 0,24.353 -18.711,44.09 -41.789,44.09 -23.082,0 -41.793,-19.737 -41.793,-44.09 0,-24.348 18.711,-44.089 41.793,-44.089 23.078,0 41.789,19.741 41.789,44.089 z"
           id="path272"
           style="fill:#000000;fill-opacity:1;fill-rule:evenodd;stroke:#000000;stroke-width:6.87790298;stroke-linecap:butt;stroke-linejoin:round;stroke-miterlimit:4;stroke-opacity:1;stroke-dasharray:none" /></g><g
         transform="matrix(1,0,0,-0.947826,0,320)"
         id="g274"><path
           d="m 121.41,159.666 c 0,24.353 -18.711,44.09 -41.789,44.09 -23.082,0 -41.793,-19.737 -41.793,-44.09 0,-24.348 18.711,-44.089 41.793,-44.089 23.078,0 41.789,19.741 41.789,44.089 z"
           id="path276"
           style="fill:#ffa500;fill-opacity:1;fill-rule:evenodd;stroke:#000000;stroke-width:3.0568459;stroke-linecap:butt;stroke-linejoin:miter;stroke-miterlimit:4;stroke-opacity:1;stroke-dasharray:none" /></g><path
         d="m 115.391,187.164 c 0.242,-1.848 0.464,-3.707 0.464,-5.625 0,-23.832 -19.32,-43.199 -43.152,-43.199 -10.965,0 -20.844,4.23 -28.461,10.972 6.86,-12.523 20.094,-21.062 35.387,-21.062 22.332,0 40.363,18.078 40.363,40.406 0,6.699 -1.726,12.953 -4.601,18.508 z"
         id="path278"
         style="fill:#ff8c00;fill-opacity:1;fill-rule:evenodd;stroke:none" /><path
         d="m 93.586,175.801 c -0.223,-7.02 -3.371,-12.637 -7.035,-12.547 -3.664,0.094 -6.453,5.859 -6.231,12.879 0.219,7.019 3.368,12.64 7.032,12.547 3.664,-0.09 6.453,-5.856 6.234,-12.879 z"
         id="path280"
         style="fill:#000000;fill-opacity:1;fill-rule:evenodd;stroke:none" /><path
         d="m 111.078,175.801 c -0.223,-7.02 -3.371,-12.637 -7.031,-12.547 -3.664,0.094 -6.453,5.859 -6.235,12.879 0.223,7.019 3.372,12.64 7.032,12.547 3.664,-0.09 6.453,-5.856 6.234,-12.879 z"
         id="path282"
         style="fill:#000000;fill-opacity:1;fill-rule:evenodd;stroke:none" /><g
         transform="matrix(1,0,0,-1,0,320)"
         id="g284"><path
           d="m 77.738,188.758 c 0,-9.32 11.172,-13.914 21.715,-13.746 10.543,0.164 24.363,6.222 24.363,14.711 0,8.492 -14.429,8.093 -24.363,8.093 -5,0 -14.098,0.637 -18.012,-1.586 -3.859,-2.191 -3.871,-7.472 -3.703,-7.472 z"
           id="path286"
           style="fill:#000000;fill-opacity:1;fill-rule:nonzero;stroke:#000000;stroke-width:5.00299597;stroke-linecap:butt;stroke-linejoin:round;stroke-miterlimit:4;stroke-opacity:1;stroke-dasharray:none" /></g><g
         transform="matrix(1,0,0,-1,0,320)"
         id="g288"><path
           d="m 77.738,188.758 c 0,-9.32 11.172,-13.914 21.715,-13.746 10.543,0.164 24.363,6.222 24.363,14.711 0,8.492 -14.429,8.093 -24.363,8.093 -5,0 -14.098,0.637 -18.012,-1.586 -3.859,-2.191 -3.871,-7.472 -3.703,-7.472 z"
           id="path290"
           style="fill:#a67e33;fill-opacity:1;fill-rule:nonzero;stroke:#000000;stroke-width:4.00239706;stroke-linecap:butt;stroke-linejoin:miter;stroke-miterlimit:4;stroke-opacity:1;stroke-dasharray:none" /></g><g
         id="g292"><g
           id="g294" /><g
           mask="url(#mask300)"
           id="g308"><g
             id="g310" /><g
             id="g332"><g
               clip-path="url(#clipPath312)"
               id="g334"><g
                 id="g336"><path
                   d="m 0,0 1440,0 0,320 L 0,320 0,0 z"
                   id="path338"
                   style="fill:url(#pattern320);fill-opacity:1;fill-rule:nonzero;stroke:none" /></g></g></g></g></g><g
         transform="matrix(1,0,0,-1,0,320)"
         id="g340"><path
           d="m 110.086,57.055 c 0,-5.91 7.082,-8.825 13.769,-8.719 6.684,0.105 15.446,3.945 15.446,9.328 0,5.387 -9.149,5.133 -15.446,5.133 -3.171,0 -8.937,0.402 -11.421,-1.004 -2.446,-1.391 -2.454,-4.738 -2.348,-4.738 z"
           id="path342"
           style="fill:#000000;fill-opacity:1;fill-rule:nonzero;stroke:#000000;stroke-width:3.17219496;stroke-linecap:butt;stroke-linejoin:round;stroke-miterlimit:4;stroke-opacity:1;stroke-dasharray:none" /></g><g
         transform="matrix(1,0,0,-1,0,320)"
         id="g344"><path
           d="m 110.086,57.055 c 0,-5.91 7.082,-8.825 13.769,-8.719 6.684,0.105 15.446,3.945 15.446,9.328 0,5.387 -9.149,5.133 -15.446,5.133 -3.171,0 -8.937,0.402 -11.421,-1.004 -2.446,-1.391 -2.454,-4.738 -2.348,-4.738 z"
           id="path346"
           style="fill:#a67e33;fill-opacity:1;fill-rule:nonzero;stroke:#000000;stroke-width:2.53775597;stroke-linecap:butt;stroke-linejoin:miter;stroke-miterlimit:4;stroke-opacity:1;stroke-dasharray:none" /></g><g
         id="g348"><g
           id="g350" /><g
           mask="url(#mask356)"
           id="g364"><g
             id="g366" /><g
             id="g388"><g
               clip-path="url(#clipPath368)"
               id="g390"><g
                 id="g392"><path
                   d="m 0,0 1440,0 0,320 L 0,320 0,0 z"
                   id="path394"
                   style="fill:url(#pattern376);fill-opacity:1;fill-rule:nonzero;stroke:none" /></g></g></g></g></g><g
         transform="matrix(1,0,0,-0.947826,0,320)"
         id="g396"><path
           d="m 159.852,35.163 c 0,15.438 -11.864,27.954 -26.497,27.954 -14.636,0 -26.5,-12.516 -26.5,-27.954 0,-15.443 11.864,-27.959 26.5,-27.959 14.633,0 26.497,12.516 26.497,27.959 z"
           id="path398"
           style="fill:#000000;fill-opacity:1;fill-rule:evenodd;stroke:#000000;stroke-width:4.36099577;stroke-linecap:butt;stroke-linejoin:round;stroke-miterlimit:4;stroke-opacity:1;stroke-dasharray:none" /></g><g
         transform="matrix(1,0,0,-0.947826,0,320)"
         id="g400"><path
           d="m 159.852,35.163 c 0,15.438 -11.864,27.954 -26.497,27.954 -14.636,0 -26.5,-12.516 -26.5,-27.954 0,-15.443 11.864,-27.959 26.5,-27.959 14.633,0 26.497,12.516 26.497,27.959 z"
           id="path402"
           style="fill:#ffa500;fill-opacity:1;fill-rule:evenodd;stroke:#000000;stroke-width:1.93822098;stroke-linecap:butt;stroke-linejoin:miter;stroke-miterlimit:4;stroke-opacity:1;stroke-dasharray:none" /></g><path
         d="m 156.035,298.406 c 0.153,-1.172 0.293,-2.355 0.293,-3.57 0,-15.109 -12.25,-27.391 -27.359,-27.391 -6.953,0 -13.219,2.684 -18.047,6.961 4.351,-7.941 12.742,-13.359 22.437,-13.359 14.161,0 25.594,11.465 25.594,25.625 0,4.242 -1.094,8.211 -2.918,11.734 z"
         id="path404"
         style="fill:#ff8c00;fill-opacity:1;fill-rule:evenodd;stroke:none" /><path
         d="m 142.207,284.352 c -0.141,-4.454 -2.137,-8.016 -4.457,-7.957 -2.324,0.058 -4.094,3.714 -3.953,8.164 0.141,4.453 2.137,8.015 4.461,7.957 2.32,-0.059 4.09,-3.715 3.949,-8.164 z"
         id="path406"
         style="fill:#000000;fill-opacity:1;fill-rule:evenodd;stroke:none" /><path
         d="m 153.301,284.352 c -0.141,-4.454 -2.137,-8.016 -4.461,-7.957 -2.32,0.058 -4.09,3.714 -3.949,8.164 0.14,4.453 2.136,8.015 4.457,7.957 2.324,-0.059 4.093,-3.715 3.953,-8.164 z"
         id="path408"
         style="fill:#000000;fill-opacity:1;fill-rule:evenodd;stroke:none" /><g
         transform="matrix(1,0,0,-1,0,320)"
         id="g410"><path
           d="m 132.16,57.055 c 0,-5.91 7.082,-8.825 13.77,-8.719 6.683,0.105 15.445,3.945 15.445,9.328 0,5.387 -9.148,5.133 -15.445,5.133 -3.172,0 -8.938,0.402 -11.422,-1.004 -2.446,-1.391 -2.453,-4.738 -2.348,-4.738 z"
           id="path412"
           style="fill:#000000;fill-opacity:1;fill-rule:nonzero;stroke:#000000;stroke-width:3.17219496;stroke-linecap:butt;stroke-linejoin:round;stroke-miterlimit:4;stroke-opacity:1;stroke-dasharray:none" /></g><g
         transform="matrix(1,0,0,-1,0,320)"
         id="g414"><path
           d="m 132.16,57.055 c 0,-5.91 7.082,-8.825 13.77,-8.719 6.683,0.105 15.445,3.945 15.445,9.328 0,5.387 -9.148,5.133 -15.445,5.133 -3.172,0 -8.938,0.402 -11.422,-1.004 -2.446,-1.391 -2.453,-4.738 -2.348,-4.738 z"
           id="path416"
           style="fill:#a67e33;fill-opacity:1;fill-rule:nonzero;stroke:#000000;stroke-width:2.53775597;stroke-linecap:butt;stroke-linejoin:miter;stroke-miterlimit:4;stroke-opacity:1;stroke-dasharray:none" /></g><g
         id="g418"><g
           id="g420" /><g
           mask="url(#mask426)"
           id="g434"><g
             id="g436" /><g
             id="g458"><g
               clip-path="url(#clipPath438)"
               id="g460"><g
                 id="g462"><path
                   d="m 0,0 1440,0 0,320 L 0,320 0,0 z"
                   id="path464"
                   style="fill:url(#pattern446);fill-opacity:1;fill-rule:nonzero;stroke:none" /></g></g></g></g></g><g
         transform="matrix(1,0,0,-1,0,320)"
         id="g466"><path
           d="m 172.965,279.566 c 0,-12.511 14.996,-18.675 29.148,-18.453 14.153,0.223 32.699,8.352 32.699,19.75 0,11.395 -19.367,10.864 -32.699,10.864 -6.715,0 -18.922,0.851 -24.175,-2.129 -5.18,-2.942 -5.196,-10.032 -4.973,-10.032 z"
           id="path468"
           style="fill:#000000;fill-opacity:1;fill-rule:nonzero;stroke:#000000;stroke-width:6.71539688;stroke-linecap:butt;stroke-linejoin:round;stroke-miterlimit:4;stroke-opacity:1;stroke-dasharray:none" /></g><g
         transform="matrix(1,0,0,-1,0,320)"
         id="g470"><path
           d="m 172.965,279.566 c 0,-12.511 14.996,-18.675 29.148,-18.453 14.153,0.223 32.699,8.352 32.699,19.75 0,11.395 -19.367,10.864 -32.699,10.864 -6.715,0 -18.922,0.851 -24.175,-2.129 -5.18,-2.942 -5.196,-10.032 -4.973,-10.032 z"
           id="path472"
           style="fill:#a67e33;fill-opacity:1;fill-rule:nonzero;stroke:#000000;stroke-width:5.37231684;stroke-linecap:butt;stroke-linejoin:miter;stroke-miterlimit:4;stroke-opacity:1;stroke-dasharray:none" /></g><g
         id="g474"><g
           id="g476" /><g
           mask="url(#mask482)"
           id="g490"><g
             id="g492" /><g
             id="g514"><g
               clip-path="url(#clipPath494)"
               id="g516"><g
                 id="g518"><path
                   d="m 0,0 1440,0 0,320 L 0,320 0,0 z"
                   id="path520"
                   style="fill:url(#pattern502);fill-opacity:1;fill-rule:nonzero;stroke:none" /></g></g></g></g></g><g
         transform="matrix(1,0,0,-0.947826,0,320)"
         id="g522"><path
           d="m 278.316,241.96 c 0,32.686 -25.113,59.181 -56.093,59.181 -30.981,0 -56.094,-26.495 -56.094,-59.181 0,-32.686 25.113,-59.182 56.094,-59.182 30.98,0 56.093,26.496 56.093,59.182 z"
           id="path524"
           style="fill:#000000;fill-opacity:1;fill-rule:evenodd;stroke:#000000;stroke-width:9.23203754;stroke-linecap:butt;stroke-linejoin:round;stroke-miterlimit:4;stroke-opacity:1;stroke-dasharray:none" /></g><g
         transform="matrix(1,0,0,-0.947826,0,320)"
         id="g526"><path
           d="m 278.316,241.96 c 0,32.686 -25.113,59.181 -56.093,59.181 -30.981,0 -56.094,-26.495 -56.094,-59.181 0,-32.686 25.113,-59.182 56.094,-59.182 30.98,0 56.093,26.496 56.093,59.182 z"
           id="path528"
           style="fill:#ffa500;fill-opacity:1;fill-rule:evenodd;stroke:#000000;stroke-width:4.10312796;stroke-linecap:butt;stroke-linejoin:miter;stroke-miterlimit:4;stroke-opacity:1;stroke-dasharray:none" /></g><path
         d="m 270.234,115.5 c 0.325,-2.48 0.625,-4.98 0.625,-7.555 0,-31.984 -25.933,-57.984 -57.921,-57.984 -14.715,0 -27.981,5.68 -38.2,14.73 9.207,-16.812 26.969,-28.273 47.496,-28.273 29.973,0 54.18,24.266 54.18,54.238 0,8.989 -2.316,17.383 -6.18,24.844 z"
         id="path530"
         style="fill:#ff8c00;fill-opacity:1;fill-rule:evenodd;stroke:none" /><path
         d="m 218.336,95.156 c -0.293,-9.426 -4.52,-16.965 -9.438,-16.844 -4.918,0.126 -8.66,7.864 -8.367,17.286 0.297,9.425 4.524,16.964 9.442,16.843 4.918,-0.121 8.66,-7.863 8.363,-17.285 z"
         id="path532"
         style="fill:#000000;fill-opacity:1;fill-rule:evenodd;stroke:none" /><path
         d="m 241.82,95.156 c -0.297,-9.426 -4.523,-16.965 -9.441,-16.844 -4.918,0.126 -8.66,7.864 -8.363,17.286 0.296,9.425 4.519,16.964 9.437,16.843 4.918,-0.121 8.664,-7.863 8.367,-17.285 z"
         id="path534"
         style="fill:#000000;fill-opacity:1;fill-rule:evenodd;stroke:none" /><g
         transform="matrix(1,0,0,-1,0,320)"
         id="g536"><path
           d="m 219.695,279.566 c 0,-12.511 14.996,-18.675 29.149,-18.453 14.152,0.223 32.699,8.352 32.699,19.75 0,11.395 -19.367,10.864 -32.699,10.864 -6.715,0 -18.922,0.851 -24.18,-2.129 -5.18,-2.942 -5.191,-10.032 -4.969,-10.032 z"
           id="path538"
           style="fill:#000000;fill-opacity:1;fill-rule:nonzero;stroke:#000000;stroke-width:6.71539688;stroke-linecap:butt;stroke-linejoin:round;stroke-miterlimit:4;stroke-opacity:1;stroke-dasharray:none" /></g><g
         transform="matrix(1,0,0,-1,0,320)"
         id="g540"><path
           d="m 219.695,279.566 c 0,-12.511 14.993,-18.675 29.149,-18.453 14.152,0.223 32.699,8.352 32.699,19.75 0,11.395 -19.367,10.864 -32.699,10.864 -6.715,0 -18.922,0.851 -24.18,-2.129 -5.18,-2.942 -5.191,-10.032 -4.969,-10.032 z"
           id="path542"
           style="fill:#a67e33;fill-opacity:1;fill-rule:nonzero;stroke:#000000;stroke-width:5.37231684;stroke-linecap:butt;stroke-linejoin:miter;stroke-miterlimit:4;stroke-opacity:1;stroke-dasharray:none" /></g><g
         id="g544"><g
           id="g546" /><g
           mask="url(#mask552)"
           id="g560"><g
             id="g562" /><g
             id="g584"><g
               clip-path="url(#clipPath564)"
               id="g586"><g
                 id="g588"><path
                   d="m 0,0 1440,0 0,320 L 0,320 0,0 z"
                   id="path590"
                   style="fill:url(#pattern572);fill-opacity:1;fill-rule:nonzero;stroke:none" /></g></g></g></g></g><g
         transform="matrix(1,0,0,-1,0,320)"
         id="g592"><path
           d="m 477.527,69.785 c 0,-6.066 7.27,-9.055 14.129,-8.945 6.86,0.105 15.852,4.047 15.852,9.57 0,5.528 -9.391,5.27 -15.852,5.27 -3.254,0 -9.172,0.41 -11.718,-1.035 -2.512,-1.426 -2.52,-4.86 -2.411,-4.86 z"
           id="path594"
           style="fill:#000000;fill-opacity:1;fill-rule:nonzero;stroke:#000000;stroke-width:3.25539494;stroke-linecap:butt;stroke-linejoin:round;stroke-miterlimit:4;stroke-opacity:1;stroke-dasharray:none" /></g><g
         transform="matrix(1,0,0,-1,0,320)"
         id="g596"><path
           d="m 477.527,69.785 c 0,-6.066 7.27,-9.055 14.129,-8.945 6.86,0.105 15.852,4.047 15.852,9.57 0,5.528 -9.391,5.27 -15.852,5.27 -3.254,0 -9.172,0.41 -11.718,-1.035 -2.512,-1.426 -2.52,-4.86 -2.411,-4.86 z"
           id="path598"
           style="fill:#a67e33;fill-opacity:1;fill-rule:nonzero;stroke:#000000;stroke-width:2.604316;stroke-linecap:butt;stroke-linejoin:miter;stroke-miterlimit:4;stroke-opacity:1;stroke-dasharray:none" /></g><g
         id="g600"><g
           id="g602" /><g
           mask="url(#mask608)"
           id="g616"><g
             id="g618" /><g
             id="g640"><g
               clip-path="url(#clipPath620)"
               id="g642"><g
                 id="g644"><path
                   d="m 0,0 1440,0 0,320 L 0,320 0,0 z"
                   id="path646"
                   style="fill:url(#pattern628);fill-opacity:1;fill-rule:nonzero;stroke:none" /></g></g></g></g></g><g
         transform="matrix(1,0,0,-0.947826,0,320)"
         id="g648"><path
           d="m 528.598,47.935 c 0,15.846 -12.176,28.688 -27.196,28.688 -15.015,0 -27.191,-12.842 -27.191,-28.688 0,-15.847 12.176,-28.689 27.191,-28.689 15.02,0 27.196,12.842 27.196,28.689 z"
           id="path650"
           style="fill:#000000;fill-opacity:1;fill-rule:evenodd;stroke:#000000;stroke-width:4.47537708;stroke-linecap:butt;stroke-linejoin:round;stroke-miterlimit:4;stroke-opacity:1;stroke-dasharray:none" /></g><g
         transform="matrix(1,0,0,-0.947826,0,320)"
         id="g652"><path
           d="m 528.598,47.935 c 0,15.846 -12.176,28.688 -27.196,28.688 -15.015,0 -27.191,-12.842 -27.191,-28.688 0,-15.847 12.176,-28.689 27.191,-28.689 15.02,0 27.196,12.842 27.196,28.689 z"
           id="path654"
           style="fill:#ffa500;fill-opacity:1;fill-rule:evenodd;stroke:#000000;stroke-width:1.98905599;stroke-linecap:butt;stroke-linejoin:miter;stroke-miterlimit:4;stroke-opacity:1;stroke-dasharray:none" /></g><path
         d="m 524.68,286.605 c 0.156,-1.203 0.3,-2.414 0.3,-3.66 0,-15.507 -12.57,-28.109 -28.078,-28.109 -7.132,0 -13.562,2.754 -18.515,7.141 4.461,-8.149 13.074,-13.707 23.023,-13.707 14.531,0 26.266,11.761 26.266,26.292 0,4.356 -1.125,8.426 -2.996,12.043 z"
         id="path656"
         style="fill:#ff8c00;fill-opacity:1;fill-rule:evenodd;stroke:none" /><path
         d="m 510.488,279.211 c -0.14,-4.566 -2.191,-8.223 -4.574,-8.164 -2.383,0.058 -4.199,3.812 -4.055,8.379 0.145,4.57 2.192,8.222 4.575,8.164 2.382,-0.059 4.199,-3.809 4.054,-8.379 z"
         id="path658"
         style="fill:#000000;fill-opacity:1;fill-rule:evenodd;stroke:none" /><path
         d="m 521.871,279.211 c -0.141,-4.566 -2.191,-8.223 -4.574,-8.164 -2.383,0.058 -4.199,3.812 -4.055,8.379 0.145,4.57 2.192,8.222 4.574,8.164 2.383,-0.059 4.2,-3.809 4.055,-8.379 z"
         id="path660"
         style="fill:#000000;fill-opacity:1;fill-rule:evenodd;stroke:none" /><g
         transform="matrix(1,0,0,-1,0,320)"
         id="g662"><path
           d="m 500.18,69.785 c 0,-6.066 7.269,-9.055 14.129,-8.945 6.859,0.105 15.851,4.047 15.851,9.57 0,5.528 -9.387,5.27 -15.851,5.27 -3.254,0 -9.172,0.41 -11.719,-1.035 -2.512,-1.426 -2.52,-4.86 -2.41,-4.86 z"
           id="path664"
           style="fill:#000000;fill-opacity:1;fill-rule:nonzero;stroke:#000000;stroke-width:3.25539494;stroke-linecap:butt;stroke-linejoin:round;stroke-miterlimit:4;stroke-opacity:1;stroke-dasharray:none" /></g><g
         transform="matrix(1,0,0,-1,0,320)"
         id="g666"><path
           d="m 500.18,69.785 c 0,-6.066 7.269,-9.055 14.129,-8.945 6.859,0.105 15.851,4.047 15.851,9.57 0,5.528 -9.387,5.27 -15.851,5.27 -3.254,0 -9.172,0.41 -11.719,-1.035 -2.512,-1.426 -2.52,-4.86 -2.41,-4.86 z"
           id="path668"
           style="fill:#a67e33;fill-opacity:1;fill-rule:nonzero;stroke:#000000;stroke-width:2.604316;stroke-linecap:butt;stroke-linejoin:miter;stroke-miterlimit:4;stroke-opacity:1;stroke-dasharray:none" /></g><g
         id="g670"><g
           id="g672" /><g
           mask="url(#mask678)"
           id="g686"><g
             id="g688" /><g
             id="g710"><g
               clip-path="url(#clipPath690)"
               id="g712"><g
                 id="g714"><path
                   d="m 0,0 1440,0 0,320 L 0,320 0,0 z"
                   id="path716"
                   style="fill:url(#pattern698);fill-opacity:1;fill-rule:nonzero;stroke:none" /></g></g></g></g></g><g
         transform="matrix(1,0,0,-1,0,320)"
         id="g718"><path
           d="m 414.668,240.484 c 0,-9.398 11.258,-14.027 21.887,-13.859 10.629,0.168 24.558,6.273 24.558,14.832 0,8.559 -14.543,8.16 -24.558,8.16 -5.039,0 -14.211,0.637 -18.157,-1.601 -3.89,-2.207 -3.898,-7.532 -3.73,-7.532 z"
           id="path720"
           style="fill:#000000;fill-opacity:1;fill-rule:nonzero;stroke:#000000;stroke-width:5.04320812;stroke-linecap:butt;stroke-linejoin:round;stroke-miterlimit:4;stroke-opacity:1;stroke-dasharray:none" /></g><g
         transform="matrix(1,0,0,-1,0,320)"
         id="g722"><path
           d="m 414.668,240.484 c 0,-9.398 11.258,-14.027 21.887,-13.859 10.629,0.168 24.558,6.273 24.558,14.832 0,8.559 -14.543,8.16 -24.558,8.16 -5.039,0 -14.211,0.637 -18.157,-1.601 -3.89,-2.207 -3.898,-7.532 -3.73,-7.532 z"
           id="path724"
           style="fill:#a67e33;fill-opacity:1;fill-rule:nonzero;stroke:#000000;stroke-width:4.03456688;stroke-linecap:butt;stroke-linejoin:miter;stroke-miterlimit:4;stroke-opacity:1;stroke-dasharray:none" /></g><g
         id="g726"><g
           id="g728" /><g
           mask="url(#mask734)"
           id="g742"><g
             id="g744" /><g
             id="g766"><g
               clip-path="url(#clipPath746)"
               id="g768"><g
                 id="g770"><path
                   d="m 0,0 1440,0 0,320 L 0,320 0,0 z"
                   id="path772"
                   style="fill:url(#pattern754);fill-opacity:1;fill-rule:nonzero;stroke:none" /></g></g></g></g></g><g
         transform="matrix(1,0,0,-0.947826,0,320)"
         id="g774"><path
           d="m 493.785,213.923 c 0,24.546 -18.863,44.444 -42.129,44.444 -23.265,0 -42.125,-19.898 -42.125,-44.444 0,-24.546 18.86,-44.448 42.125,-44.448 23.266,0 42.129,19.902 42.129,44.448 z"
           id="path776"
           style="fill:#000000;fill-opacity:1;fill-rule:evenodd;stroke:#000000;stroke-width:6.9331851;stroke-linecap:butt;stroke-linejoin:round;stroke-miterlimit:4;stroke-opacity:1;stroke-dasharray:none" /></g><g
         transform="matrix(1,0,0,-0.947826,0,320)"
         id="g778"><path
           d="m 493.785,213.923 c 0,24.546 -18.863,44.444 -42.129,44.444 -23.265,0 -42.125,-19.898 -42.125,-44.444 0,-24.546 18.86,-44.448 42.125,-44.448 23.266,0 42.129,19.902 42.129,44.448 z"
           id="path780"
           style="fill:#ffa500;fill-opacity:1;fill-rule:evenodd;stroke:#000000;stroke-width:3.08141589;stroke-linecap:butt;stroke-linejoin:miter;stroke-miterlimit:4;stroke-opacity:1;stroke-dasharray:none" /></g><path
         d="m 487.715,135.891 c 0.246,-1.864 0.469,-3.743 0.469,-5.672 0,-24.024 -19.477,-43.547 -43.5,-43.547 -11.051,0 -21.012,4.266 -28.688,11.062 C 422.91,85.109 436.25,76.5 451.668,76.5 c 22.508,0 40.687,18.227 40.687,40.734 0,6.75 -1.742,13.055 -4.64,18.657 z"
         id="path782"
         style="fill:#ff8c00;fill-opacity:1;fill-rule:evenodd;stroke:none" /><path
         d="m 465.734,124.438 c -0.222,-7.079 -3.398,-12.743 -7.089,-12.649 -3.692,0.09 -6.504,5.902 -6.282,12.981 0.223,7.078 3.395,12.738 7.09,12.648 3.692,-0.094 6.504,-5.906 6.281,-12.98 z"
         id="path784"
         style="fill:#000000;fill-opacity:1;fill-rule:evenodd;stroke:none" /><path
         d="m 483.367,124.438 c -0.222,-7.079 -3.394,-12.743 -7.09,-12.649 -3.691,0.09 -6.504,5.902 -6.281,12.981 0.223,7.078 3.399,12.738 7.09,12.648 3.691,-0.094 6.504,-5.906 6.281,-12.98 z"
         id="path786"
         style="fill:#000000;fill-opacity:1;fill-rule:evenodd;stroke:none" /><g
         transform="matrix(1,0,0,-1,0,320)"
         id="g788"><path
           d="m 449.758,240.484 c 0,-9.398 11.262,-14.027 21.89,-13.859 10.629,0.168 24.559,6.273 24.559,14.832 0,8.559 -14.547,8.16 -24.559,8.16 -5.039,0 -14.21,0.637 -18.156,-1.601 -3.89,-2.207 -3.898,-7.532 -3.734,-7.532 z"
           id="path790"
           style="fill:#000000;fill-opacity:1;fill-rule:nonzero;stroke:#000000;stroke-width:5.04320812;stroke-linecap:butt;stroke-linejoin:round;stroke-miterlimit:4;stroke-opacity:1;stroke-dasharray:none" /></g><g
         transform="matrix(1,0,0,-1,0,320)"
         id="g792"><path
           d="m 449.758,240.484 c 0,-9.398 11.262,-14.027 21.89,-13.859 10.629,0.168 24.559,6.273 24.559,14.832 0,8.559 -14.547,8.16 -24.559,8.16 -5.039,0 -14.21,0.637 -18.156,-1.601 -3.89,-2.207 -3.898,-7.532 -3.734,-7.532 z"
           id="path794"
           style="fill:#a67e33;fill-opacity:1;fill-rule:nonzero;stroke:#000000;stroke-width:4.03456688;stroke-linecap:butt;stroke-linejoin:miter;stroke-miterlimit:4;stroke-opacity:1;stroke-dasharray:none" /></g><g
         id="g796"><g
           id="g798" /><g
           mask="url(#mask804)"
           id="g812"><g
             id="g814" /><g
             id="g836"><g
               clip-path="url(#clipPath816)"
               id="g838"><g
                 id="g840"><path
                   d="m 0,0 1440,0 0,320 L 0,320 0,0 z"
                   id="path842"
                   style="fill:url(#pattern824);fill-opacity:1;fill-rule:nonzero;stroke:none" /></g></g></g></g></g><g
         transform="matrix(1,0,0,-1,0,320)"
         id="g844"><path
           d="m 528.113,202.758 33.828,0 c 16.969,0 26.797,-4.703 35.344,-16.891 8.313,-11.828 13.11,-26.672 13.11,-40.906 0,-21.141 -9.047,-30.203 -30.063,-30.203 l -33.828,0 -18.391,88 z m 21,-15.141 12,-57.719 16.016,0 c 10.922,0 16.266,5.297 16.266,16.266 0,9.516 -3.094,21.938 -7.125,29.047 -5.11,9.031 -10.922,12.406 -21.25,12.406 l -15.907,0 z m 66.535,15.141 33.829,0 c 16.968,0 26.796,-4.703 35.343,-16.891 8.313,-11.828 13.11,-26.672 13.11,-40.906 0,-21.141 -9.047,-30.203 -30.063,-30.203 l -33.828,0 -18.391,88 z m 21,-15.141 12,-57.719 16.016,0 c 10.922,0 16.266,5.297 16.266,16.266 0,9.516 -3.094,21.938 -7.125,29.047 -5.11,9.031 -10.922,12.406 -21.25,12.406 l -15.907,0 z m 78.942,-49.859 -13.641,65 16.61,0 7.25,-34.297 c 2.015,-9.797 8.062,-14.703 17.796,-14.703 1.782,0 2.969,0.125 5.11,0.484 l 3.562,-17.375 c -0.953,-0.109 -1.547,-0.109 -2.015,-0.109 -7.61,0 -15.203,5.125 -20.782,14.047 l 2.735,-13.047 -16.625,0 z m 88.578,62.828 c -1.875,-2.063 -2.625,-3.641 -2.625,-5.453 0,-0.719 0.125,-1.578 0.375,-2.547 l 7.875,-36.297 c 0.5,-2.172 0.75,-3.984 0.75,-5.437 0,-3.625 -2.172,-7.985 -4.953,-10.36 -3.86,-3.234 -9.766,-4.734 -18.219,-4.734 -18.594,0 -28.187,7.031 -31.5,23.047 l 15.5,0 c 2,-6.641 5.641,-9.047 13.172,-9.047 6.281,0 9,1.562 9,5.187 0,2.532 -1.672,5.188 -4.047,6.391 -2.391,1.328 -2.391,1.328 -10.969,2.547 l -6.906,1.078 c -5.719,0.969 -10.141,2.656 -13.828,5.312 -6.313,4.579 -10.25,11.954 -10.25,19.188 0,4.734 2.141,9.453 5.578,12.437 2.969,2.61 7.016,3.86 12.125,3.86 6.828,0 12.594,-2.875 19.656,-9.625 -0.359,1.812 -0.359,2.406 -0.359,3.25 0,1.203 0.25,1.922 0.859,3.25 l 18.266,0 0.5,-2.047 z m -15.031,-24.281 c -2.157,9.906 -7.875,15.453 -16,15.453 -5.657,0 -8.594,-2.047 -8.594,-6.031 0,-5.672 4.391,-9.657 12.125,-10.985 l 5.937,-0.969 1.907,-0.359 c 1.187,-0.234 2.015,-0.359 2.484,-0.484 1.313,-0.235 1.672,-0.36 3.094,-1.203 l -0.953,4.578 z m 90.113,-14.594 c 0.359,-2.891 0.469,-3.984 0.469,-5.188 0,-5.187 -2.016,-10.14 -5.703,-13.968 -4.5,-4.703 -9.969,-6.797 -17.922,-6.797 -11.172,0 -19.953,3.906 -26.125,11.594 -7.016,8.531 -12,22.796 -12,34.39 0,6.156 2.14,12.188 5.937,16.5 4.282,5.047 10.813,7.516 19.61,7.516 15.312,0 26.953,-9.344 31.937,-25.828 l -15.906,0 c -3.688,8.562 -7.609,11.828 -14.016,11.828 -7.125,0 -10.562,-4.11 -10.562,-12.438 0,-6.39 1.547,-13.515 4.39,-19.312 3.329,-7.11 7.719,-10.25 14.25,-10.25 3.922,0 6.891,1.453 8.422,3.984 0.953,1.813 1.188,3.266 1.313,7.969 l 15.906,0 z m 65.004,14.047 c 1.422,-5.422 2.141,-10.485 2.141,-15.063 0,-5.797 -2,-11.718 -5.313,-16.25 -4.25,-5.672 -11.094,-8.687 -19.703,-8.687 -9.156,0 -18.547,3.812 -24.063,9.844 -7.515,8.234 -12.921,22.64 -12.921,34.937 0,15.031 10.156,25.219 24.906,25.219 14.172,0 26.015,-7.813 32.453,-21.36 l -16.313,0 c -2.328,4.438 -7.437,7.36 -13.015,7.36 -6.625,0 -11.031,-4.328 -11.031,-10.75 0,-1.047 0,-1.985 0.343,-5.25 l 42.516,0 z m -14.859,-11 -25.563,0 c 1.047,-4.063 1.969,-6.36 3.484,-8.516 2.797,-4.062 7.438,-6.484 12.094,-6.484 4.063,0 7.438,2.156 8.938,5.719 0.812,1.906 1.047,3.312 1.047,7.375 l 0,1.906 z"
           id="path846"
           style="fill:#ffa500;fill-opacity:1;fill-rule:nonzero;stroke:#000000;stroke-width:4;stroke-linecap:butt;stroke-linejoin:miter;stroke-miterlimit:4;stroke-opacity:1;stroke-dasharray:none" /></g><g
         transform="matrix(1,0,0,-1,0,320)"
         id="g848"><path
           d="m 1040.648,114.668 -16.859,0 -12.937,62.172 -22.782,-62.172 -17.812,0 -18.391,88 16.844,0 13.187,-63.141 22.782,63.141 17.578,0 18.39,-88 z m 58.536,61 c 1.421,-5.422 2.14,-10.484 2.14,-15.063 0,-5.796 -2,-11.718 -5.312,-16.25 -4.25,-5.671 -11.094,-8.687 -19.703,-8.687 -9.157,0 -18.547,3.812 -24.063,9.844 -7.516,8.234 -12.922,22.64 -12.922,34.937 0,15.031 10.156,25.219 24.906,25.219 14.172,0 26.016,-7.813 32.454,-21.359 l -16.313,0 c -2.328,4.437 -7.437,7.359 -13.016,7.359 -6.625,0 -11.031,-4.328 -11.031,-10.75 0,-1.047 0,-1.984 0.344,-5.25 l 42.516,0 z m -14.86,-11 -25.562,0 c 1.047,-4.063 1.968,-6.359 3.484,-8.516 2.797,-4.062 7.438,-6.484 12.094,-6.484 4.062,0 7.437,2.156 8.937,5.719 0.813,1.906 1.047,3.312 1.047,7.375 l 0,1.906 z m 63.129,-26 -9.25,0 3.672,-17.563 -16.547,0 -3.594,17.563 -7.984,0 -2.312,11 7.984,0 -8.094,40.5 c -0.344,1.703 -0.578,3.422 -0.578,5 0,6.719 4.625,10.5 13.062,10.5 3.891,0 6.704,-0.359 10,-1.344 l 2.36,-11.953 c -1.656,0.234 -2.61,0.359 -3.906,0.359 -2.735,0 -4.516,-1.218 -4.516,-3.046 0,-0.61 0.234,-2.079 0.719,-4.141 l 7.359,-35.875 9.25,0 2.375,-11 z m 64.985,64 31.343,-65 -17.219,0 -19.343,45.5 0,-45.5 -17.094,0 -18.875,45.5 -0.594,-45.5 -17.203,0 4.391,65 17.094,0 19.703,-45.734 0.593,45.734 17.204,0 z m 69.832,-67 c -12.11,0 -22.688,5.359 -29.625,15 -5.641,7.687 -9.282,19.891 -9.282,30.375 0,15.016 10.032,24.625 25.625,24.625 12.688,0 22.922,-5.125 30.094,-15 5.516,-7.688 9.281,-19.891 9.281,-30.375 0,-15.266 -9.922,-24.625 -26.093,-24.625 z m -2.563,14 c 7.109,0 11.656,5.547 11.656,14.125 0,5.906 -1.625,12.312 -4.437,17.375 -3.61,6.766 -8.969,10.5 -15.031,10.5 -6.985,0 -11.532,-5.438 -11.532,-14 0,-15.328 8.86,-28 19.344,-28 z m 48.832,-12 -13.641,65 16.61,0 7.25,-34.297 c 2.015,-9.797 8.062,-14.703 17.797,-14.703 1.781,0 2.968,0.125 5.109,0.484 l 3.563,-17.375 c -0.954,-0.109 -1.547,-0.109 -2.016,-0.109 -7.609,0 -15.203,5.125 -20.781,14.047 l 2.734,-13.047 -16.625,0 z m 67.969,-23 -16.61,0 -18.406,88 16.625,0 4.5,-21.391 8.078,-7.5 9.375,28.891 19.469,0 -15.312,-40.375 27.546,-24.906 -18.875,0 -26.468,25.39 10.078,-48.109 z"
           id="path850"
           style="fill:#6ac1ff;fill-opacity:1;fill-rule:nonzero;stroke:#000000;stroke-width:4;stroke-linecap:butt;stroke-linejoin:miter;stroke-miterlimit:4;stroke-opacity:1;stroke-dasharray:none" /></g></g></g></svg>