<?xml version="1.0" encoding="UTF-8"?>
<svg id="svg4" width="36" height="42" version="1.1" viewBox="0 0 36 42" xmlns="http://www.w3.org/2000/svg" xmlns:cc="http://creativecommons.org/ns#" xmlns:dc="http://purl.org/dc/elements/1.1/" xmlns:rdf="http://www.w3.org/1999/02/22-rdf-syntax-ns#">
 <metadata id="metadata10">
  <rdf:RDF>
   <cc:Work rdf:about="">
    <dc:format>image/svg+xml</dc:format>
    <dc:type rdf:resource="http://purl.org/dc/dcmitype/StillImage"/>
    <dc:title/>
   </cc:Work>
  </rdf:RDF>
 </metadata>
 <path id="path2" d="m6.75 3c-1.86-6.667e-4 -3.4495 0.6598-4.7695 1.9805-1.32 1.3207-1.9805 2.9102-1.9805 4.7695v22.5c-6.6667e-4 1.86 0.6598 3.4495 1.9805 4.7695 1.3207 1.32 2.9102 1.9805 4.7695 1.9805h22.5c1.86 6.67e-4 3.4495-0.6598 4.7695-1.9805s1.9805-2.9102 1.9805-4.7695v-22.5c6.67e-4 -1.86-0.6598-3.4495-1.9805-4.7695-1.3207-1.32-2.9102-1.9805-4.7695-1.9805h-22.5zm7.4707 8.0215l0.23828 0.28516c-4.2772 1.2356-6.25 3.1113-6.25 3.1113s0.52314-0.2855 1.4023-0.68945c2.5426-1.1168 4.5629-1.4248 5.3945-1.4961 0.14257-0.02375 0.26172-0.046875 0.4043-0.046875 1.4495-0.1901 3.088-0.23892 4.7988-0.048828 2.2574 0.26138 4.6811 0.92681 7.1523 2.2812 0 0-1.8765-1.7819-5.916-3.0176l0.33203-0.37891s3.256-0.07217 6.6777 2.4941c0 0 3.4219 6.2021 3.4219 13.854 0 0-2.02 3.445-7.2715 3.6113 0 0-0.8555-1.0209-1.5684-1.9238 3.1128-0.8792 4.3008-2.8281 4.3008-2.8281-0.97425 0.64158-1.9007 1.0934-2.7324 1.4023-1.1881 0.49901-2.3285 0.83139-3.4453 1.0215-2.2812 0.42772-4.3721 0.30924-6.1543-0.023438-1.3544-0.26138-2.5199-0.64129-3.4941-1.0215-0.54653-0.21386-1.1403-0.47592-1.7344-0.80859-0.07129-0.04752-0.1416-0.071621-0.21289-0.11914-0.04753-0.02376-0.071943-0.046553-0.095703-0.070313-0.42772-0.23762-0.66602-0.4043-0.66602-0.4043s1.1424 1.8998 4.1602 2.8027c-0.71286 0.90296-1.5938 1.9727-1.5938 1.9727-5.2514-0.16634-7.2461-3.6113-7.2461-3.6113 0-7.6514 3.4219-13.854 3.4219-13.854 3.4218-2.5663 6.6758-2.4941 6.6758-2.4941zm-0.66406 8.8633c-1.3544 0-2.4238 1.1872-2.4238 2.6367 0 1.4495 1.0931 2.6367 2.4238 2.6367 1.3544 0 2.4238-1.1872 2.4238-2.6367 0.02376-1.4495-1.0694-2.6367-2.4238-2.6367zm8.6719 0c-1.3544 0-2.4238 1.1872-2.4238 2.6367-1e-6 1.4495 1.0931 2.6367 2.4238 2.6367 1.3544 0 2.4238-1.1872 2.4238-2.6367 0-1.4495-1.0694-2.6367-2.4238-2.6367z"/>
</svg>
