<svg viewBox="0 0 36 42" xmlns="http://www.w3.org/2000/svg"><path d="M6.75 3c-1.86 0-3.45.66-4.77 1.98C.66 6.301 0 7.89 0 9.75v22.5c0 1.86.66 3.45 1.98 4.77C3.301 38.34 4.89 39 6.75 39h22.5c1.86 0 3.45-.66 4.77-1.98S36 34.11 36 32.25V9.75c0-1.86-.66-3.45-1.98-4.77C32.699 3.66 31.11 3 29.25 3H6.75zm7.47 8.021l.239.286c-4.277 1.235-6.25 3.111-6.25 3.111s.523-.286 1.402-.69c2.543-1.116 4.563-1.424 5.395-1.496.142-.023.262-.046.404-.046 1.45-.19 3.088-.24 4.799-.05a19.37 19.37 0 017.152 2.282s-1.876-1.782-5.916-3.018l.332-.379s3.256-.072 6.678 2.494c0 0 3.422 6.203 3.422 13.854 0 0-2.02 3.445-7.272 3.612 0 0-.855-1.021-1.568-1.924 3.113-.88 4.3-2.828 4.3-2.828-.974.641-1.9 1.093-2.732 1.402a15.638 15.638 0 01-3.445 1.022c-2.281.427-4.372.309-6.154-.024a19.96 19.96 0 01-3.494-1.021 13.935 13.935 0 01-1.735-.809c-.071-.047-.141-.071-.213-.119a.332.332 0 01-.095-.07c-.428-.238-.666-.405-.666-.405s1.142 1.9 4.16 2.803c-.713.903-1.594 1.973-1.594 1.973-5.251-.167-7.246-3.611-7.246-3.611 0-7.652 3.422-13.854 3.422-13.854 3.422-2.567 6.676-2.495 6.676-2.495zm-.663 8.864c-1.355 0-2.424 1.187-2.424 2.636 0 1.45 1.093 2.637 2.424 2.637 1.354 0 2.423-1.187 2.423-2.637.024-1.449-1.069-2.636-2.423-2.636zm8.672 0c-1.355 0-2.424 1.187-2.424 2.636 0 1.45 1.093 2.637 2.424 2.637 1.354 0 2.423-1.187 2.423-2.637 0-1.449-1.07-2.636-2.423-2.636z"/></svg>