<?xml version="1.0" encoding="UTF-8" standalone="no"?>
<svg
   xmlns:dc="http://purl.org/dc/elements/1.1/"
   xmlns:cc="http://creativecommons.org/ns#"
   xmlns:rdf="http://www.w3.org/1999/02/22-rdf-syntax-ns#"
   xmlns:svg="http://www.w3.org/2000/svg"
   xmlns="http://www.w3.org/2000/svg"
   xmlns:sodipodi="http://sodipodi.sourceforge.net/DTD/sodipodi-0.dtd"
   xmlns:inkscape="http://www.inkscape.org/namespaces/inkscape"
   width="41.998001"
   height="42"
   viewBox="0 0 41.997625 42.000249"
   id="svg2"
   version="1.1"
   inkscape:version="0.91 r13725"
   sodipodi:docname="facebook.svg">
  <metadata
     id="metadata10">
    <rdf:RDF>
      <cc:Work
         rdf:about="">
        <dc:format>image/svg+xml</dc:format>
        <dc:type
           rdf:resource="http://purl.org/dc/dcmitype/StillImage" />
        <dc:title></dc:title>
      </cc:Work>
    </rdf:RDF>
  </metadata>
  <defs
     id="defs8" />
  <sodipodi:namedview
     pagecolor="#ffffff"
     bordercolor="#666666"
     borderopacity="1"
     objecttolerance="10"
     gridtolerance="10"
     guidetolerance="10"
     inkscape:pageopacity="0"
     inkscape:pageshadow="2"
     inkscape:window-width="958"
     inkscape:window-height="529"
     id="namedview6"
     showgrid="false"
     units="px"
     fit-margin-top="1"
     fit-margin-left="1"
     fit-margin-right="1"
     fit-margin-bottom="1"
     inkscape:zoom="3.8324075"
     inkscape:cx="-16.518004"
     inkscape:cy="16.43217"
     inkscape:window-x="960"
     inkscape:window-y="549"
     inkscape:window-maximized="0"
     inkscape:current-layer="svg2" />
  <path
     d="m 38.791018,1.0010059 -35.5834335,0 c -1.2199463,0 -2.20790279,0.9879565 -2.20790279,2.2079028 l 0,35.5834323 c 0,1.218947 0.98795649,2.207903 2.20790279,2.207903 l 19.1561565,0 0,-15.489318 -5.21277,0 0,-6.036734 5.21277,0 0,-4.451804 c 0,-5.1667716 3.154861,-7.9796481 7.763658,-7.9796481 2.207903,0 4.104819,0.1639927 4.657795,0.2379895 l 0,5.3987616 -3.196859,10e-4 c -2.50589,0 -2.991868,1.190948 -2.991868,2.938871 l 0,3.85383 5.977736,0 -0.777965,6.036734 -5.198771,0 0,15.489318 10.192551,0 c 1.218946,0 2.207903,-0.987956 2.207903,-2.207903 l 0,-35.5834323 c 0,-1.2199462 -0.987957,-2.2079027 -2.207903,-2.2079027"
     id="path4"
     inkscape:connector-curvature="0"
     style="fill:#1b1817" />
</svg>
