<?xml version="1.0" encoding="utf-8"?>
<!-- Generated by IcoMoon.io -->
<!DOCTYPE svg PUBLIC "-//W3C//DTD SVG 1.1//EN" "http://www.w3.org/Graphics/SVG/1.1/DTD/svg11.dtd">
<svg version="1.1" xmlns="http://www.w3.org/2000/svg" xmlns:xlink="http://www.w3.org/1999/xlink" width="42" height="42" viewBox="0 0 42 42">
<path fill="#000000" d="M35 0h-27.999c-3.85 0-7.001 3.15-7.001 7.001v27.998c0 3.853 3.15 7.001 7.001 7.001h27.999c3.85 0 7-3.148 7-7.001v-27.998c0-3.85-3.149-7.001-7-7.001zM11.441 34.094c-1.968 0-3.566-1.587-3.566-3.553 0-1.956 1.598-3.561 3.566-3.561 1.975 0 3.571 1.605 3.571 3.561-0 1.966-1.596 3.553-3.571 3.553zM20.404 34.125c0-3.355-1.305-6.514-3.669-8.878-2.367-2.369-5.512-3.676-8.855-3.676v-5.135c9.747 0 17.683 7.934 17.683 17.688l-5.158 0zM29.516 34.125c0-11.938-9.707-21.654-21.631-21.654v-5.137c14.766 0 26.781 12.023 26.781 26.791l-5.15-0z"></path>
</svg>
