<?xml version="1.0" encoding="utf-8"?>
<!-- Generated by IcoMoon.io -->
<!DOCTYPE svg PUBLIC "-//W3C//DTD SVG 1.1//EN" "http://www.w3.org/Graphics/SVG/1.1/DTD/svg11.dtd">
<svg version="1.1" xmlns="http://www.w3.org/2000/svg" xmlns:xlink="http://www.w3.org/1999/xlink" width="36" height="42" viewBox="0 0 36 42">
<path fill="#000" d="M12 30q0-1.242-0.879-2.121t-2.121-0.879-2.121 0.879-0.879 2.121 0.879 2.121 2.121 0.879 2.121-0.879 0.879-2.121zM20.227 32.203q-0.305-5.437-4.148-9.281t-9.281-4.148q-0.328-0.023-0.562 0.211t-0.234 0.539v3q0 0.305 0.199 0.516t0.504 0.234q3.609 0.258 6.187 2.836t2.836 6.187q0.023 0.305 0.234 0.504t0.516 0.199h3q0.305 0 0.539-0.234t0.211-0.562zM29.227 32.227q-0.117-3.609-1.313-6.973t-3.27-6.094-4.805-4.805-6.094-3.27-6.973-1.313q-0.328-0.023-0.539 0.211-0.234 0.234-0.234 0.539v3q0 0.305 0.211 0.516t0.516 0.234q4.781 0.164 8.859 2.613t6.527 6.527 2.613 8.859q0.023 0.305 0.234 0.516t0.516 0.211h3q0.305 0 0.539-0.234 0.258-0.211 0.211-0.539zM36 9.75v22.5q0 2.789-1.98 4.77t-4.77 1.98h-22.5q-2.789 0-4.77-1.98t-1.98-4.77v-22.5q0-2.789 1.98-4.77t4.77-1.98h22.5q2.789 0 4.77 1.98t1.98 4.77z"></path>
</svg>
