<svg xmlns="http://www.w3.org/2000/svg" viewBox="0 0 36 42"><path d="M9.234 31.687q-.187.211-.469-.07-.305-.258-.094-.445.187-.211.469.07.281.258.094.445zm-.984-1.429q.211.281 0 .445-.187.141-.398-.164t0-.422q.211-.164.398.141zm-1.43-1.406q-.117.164-.305.047-.234-.117-.164-.281.07-.117.305-.047.234.117.164.281zm.727.796q-.141.164-.375-.07-.211-.258-.047-.375.141-.141.375.07.211.258.047.375zm3.023 2.625q-.094.281-.445.141-.398-.094-.305-.352t.445-.164q.375.117.305.375zm1.477.118q0 .258-.375.258-.398.047-.398-.258 0-.258.375-.258.398-.047.398.258zm1.359-.235q.047.234-.328.328t-.422-.187.328-.352q.375-.047.422.211zM36 9.75v22.5q0 2.789-1.98 4.77T29.25 39H24q-.375 0-.574-.023t-.457-.117-.375-.34-.117-.645v-5.602q0-2.273-1.219-3.328 1.336-.141 2.402-.422t2.203-.914 1.898-1.559 1.242-2.461.48-3.527q0-2.836-1.852-4.828.867-2.133-.187-4.781-.656-.211-1.898.258t-2.156 1.031l-.891.562q-2.18-.609-4.5-.609t-4.5.609q-.375-.258-.996-.633t-1.957-.902-2.016-.316q-1.031 2.648-.164 4.781-1.852 1.992-1.852 4.828 0 1.992.48 3.516t1.23 2.461 1.887 1.57 2.203.914 2.402.422q-.937.844-1.148 2.414-.492.234-1.055.352t-1.336.117-1.535-.504-1.301-1.465q-.445-.75-1.137-1.219t-1.16-.562l-.469-.07q-.492 0-.68.105t-.117.27.211.328.305.281l.164.117q.516.234 1.02.891t.738 1.195l.234.539q.305.891 1.031 1.441t1.57.703 1.629.164 1.301-.082l.539-.094q0 .891.012 2.414t.012 1.594q0 .516-.258.785t-.516.305-.773.035h-5.25q-2.789 0-4.77-1.98t-1.98-4.77v-22.5q0-2.789 1.98-4.77t4.77-1.98h22.5q2.789 0 4.77 1.98t1.98 4.77z"/></svg>