<?xml version="1.0" encoding="UTF-8" standalone="no"?>
<svg
   xmlns:dc="http://purl.org/dc/elements/1.1/"
   xmlns:cc="http://creativecommons.org/ns#"
   xmlns:rdf="http://www.w3.org/1999/02/22-rdf-syntax-ns#"
   xmlns:svg="http://www.w3.org/2000/svg"
   xmlns="http://www.w3.org/2000/svg"
   xmlns:sodipodi="http://sodipodi.sourceforge.net/DTD/sodipodi-0.dtd"
   xmlns:inkscape="http://www.inkscape.org/namespaces/inkscape"
   width="43.011684"
   height="42"
   viewBox="0 0 43.012196 42.001608"
   id="svg2"
   version="1.1"
   inkscape:version="0.91 r13725"
   sodipodi:docname="github.svg">
  <metadata
     id="metadata10">
    <rdf:RDF>
      <cc:Work
         rdf:about="">
        <dc:format>image/svg+xml</dc:format>
        <dc:type
           rdf:resource="http://purl.org/dc/dcmitype/StillImage" />
        <dc:title></dc:title>
      </cc:Work>
    </rdf:RDF>
  </metadata>
  <defs
     id="defs8" />
  <sodipodi:namedview
     pagecolor="#ffffff"
     bordercolor="#666666"
     borderopacity="1"
     objecttolerance="10"
     gridtolerance="10"
     guidetolerance="10"
     inkscape:pageopacity="0"
     inkscape:pageshadow="2"
     inkscape:window-width="958"
     inkscape:window-height="529"
     id="namedview6"
     showgrid="false"
     fit-margin-top="1"
     fit-margin-left="1"
     fit-margin-right="1"
     fit-margin-bottom="1"
     units="px"
     inkscape:zoom="5.4553564"
     inkscape:cx="-7.7848997"
     inkscape:cy="20.857698"
     inkscape:window-x="960"
     inkscape:window-y="18"
     inkscape:window-maximized="0"
     inkscape:current-layer="svg2" />
  <path
     d="m 21.504086,1.0020525 c -11.321852,0 -20.50461608,9.1807505 -20.50461608,20.5076375 0,9.058891 5.87543848,16.746108 14.02390808,19.458236 1.026238,0.187321 1.399873,-0.446147 1.399873,-0.989982 l -0.0282,-3.486591 C 10.690821,37.73009 9.4873328,33.741962 9.4873328,33.741962 8.5547558,31.372249 7.2102736,30.741803 7.2102736,30.741803 5.3481403,29.470839 7.351268,29.495009 7.351268,29.495009 c 2.0585188,0.145023 3.141154,2.113909 3.141154,2.113909 1.828899,3.133097 4.799853,2.227712 5.968092,1.703011 0.186314,-1.32434 0.71605,-2.227711 1.301177,-2.740327 -4.553112,-0.518658 -9.3408792,-2.277059 -9.3408792,-10.135484 0,-2.239797 0.799639,-4.068695 2.1108872,-5.50281 -0.211491,-0.518658 -0.9154562,-2.603361 0.201421,-5.4272784 0,0 1.721139,-0.550885 5.638769,2.1008174 1.635535,-0.454203 3.389908,-0.680802 5.134211,-0.689865 1.742288,0.0091 3.495654,0.235662 5.13421,0.689865 3.915617,-2.6527094 5.633734,-2.1008174 5.633734,-2.1008174 1.118892,2.8239174 0.414927,4.9086204 0.205449,5.4272784 1.31427,1.434115 2.10686,3.263013 2.10686,5.50281 0,7.877559 -4.794817,9.611791 -9.362029,10.118363 0.735185,0.633468 1.390809,1.88429 1.390809,3.797786 0,2.740327 -0.02518,4.952932 -0.02518,5.624669 0,0.548872 0.369607,1.187375 1.409944,0.986961 8.142428,-2.71817 14.012831,-10.398337 14.012831,-19.456221 0,-11.32588 -9.182765,-20.5076377 -20.508644,-20.5076377"
     id="path4"
     inkscape:connector-curvature="0"
     style="fill:#1b1817;fill-rule:evenodd" />
</svg>
