<?xml version="1.0" encoding="utf-8"?>
<!-- Generated by IcoMoon.io -->
<!DOCTYPE svg PUBLIC "-//W3C//DTD SVG 1.1//EN" "http://www.w3.org/Graphics/SVG/1.1/DTD/svg11.dtd">
<svg version="1.1" xmlns="http://www.w3.org/2000/svg" xmlns:xlink="http://www.w3.org/1999/xlink" width="42" height="42" viewBox="0 0 42 42">
<path fill="#000000" d="M21 0.519c-11.597 0-21 9.402-21 21 0 9.278 6.017 17.15 14.361 19.927 1.049 0.194 1.435-0.456 1.435-1.010 0-0.501-0.020-2.155-0.029-3.91-5.843 1.27-7.075-2.478-7.075-2.478-0.955-2.427-2.332-3.073-2.332-3.073-1.905-1.303 0.144-1.277 0.144-1.277 2.108 0.148 3.219 2.164 3.219 2.164 1.873 3.21 4.913 2.282 6.111 1.746 0.188-1.357 0.732-2.284 1.333-2.808-4.665-0.531-9.568-2.332-9.568-10.378 0-2.293 0.82-4.166 2.164-5.637-0.218-0.529-0.937-2.665 0.203-5.558 0 0 1.764-0.564 5.777 2.153 1.675-0.465 3.471-0.699 5.256-0.707 1.784 0.008 3.582 0.241 5.26 0.707 4.009-2.717 5.769-2.153 5.769-2.153 1.143 2.893 0.425 5.029 0.207 5.558 1.346 1.471 2.161 3.344 2.161 5.637 0 8.066-4.913 9.842-9.589 10.362 0.753 0.652 1.424 1.93 1.424 3.889 0 2.81-0.024 5.071-0.024 5.763 0 0.559 0.378 1.214 1.443 1.008 8.339-2.78 14.349-10.649 14.349-19.924 0-11.598-9.402-21-21-21z"></path>
</svg>
