<?xml version="1.0" encoding="utf-8"?>
<!-- Generated by IcoMoon.io -->
<!DOCTYPE svg PUBLIC "-//W3C//DTD SVG 1.1//EN" "http://www.w3.org/Graphics/SVG/1.1/DTD/svg11.dtd">
<svg version="1.1" xmlns="http://www.w3.org/2000/svg" xmlns:xlink="http://www.w3.org/1999/xlink" width="36" height="42" viewBox="0 0 36 42">
<path fill="#000" d="M9.234 31.687q-0.187 0.211-0.469-0.070-0.305-0.258-0.094-0.445 0.187-0.211 0.469 0.070 0.281 0.258 0.094 0.445zM8.25 30.258q0.211 0.281 0 0.445-0.187 0.141-0.398-0.164t0-0.422q0.211-0.164 0.398 0.141zM6.82 28.852q-0.117 0.164-0.305 0.047-0.234-0.117-0.164-0.281 0.070-0.117 0.305-0.047 0.234 0.117 0.164 0.281zM7.547 29.648q-0.141 0.164-0.375-0.070-0.211-0.258-0.047-0.375 0.141-0.141 0.375 0.070 0.211 0.258 0.047 0.375zM10.57 32.273q-0.094 0.281-0.445 0.141-0.398-0.094-0.305-0.352t0.445-0.164q0.375 0.117 0.305 0.375zM12.047 32.391q0 0.258-0.375 0.258-0.398 0.047-0.398-0.258 0-0.258 0.375-0.258 0.398-0.047 0.398 0.258zM13.406 32.156q0.047 0.234-0.328 0.328t-0.422-0.187 0.328-0.352q0.375-0.047 0.422 0.211zM36 9.75v22.5q0 2.789-1.98 4.77t-4.77 1.98h-5.25q-0.375 0-0.574-0.023t-0.457-0.117-0.375-0.34-0.117-0.645v-5.602q0-2.273-1.219-3.328 1.336-0.141 2.402-0.422t2.203-0.914 1.898-1.559 1.242-2.461 0.48-3.527q0-2.836-1.852-4.828 0.867-2.133-0.187-4.781-0.656-0.211-1.898 0.258t-2.156 1.031l-0.891 0.562q-2.18-0.609-4.5-0.609t-4.5 0.609q-0.375-0.258-0.996-0.633t-1.957-0.902-2.016-0.316q-1.031 2.648-0.164 4.781-1.852 1.992-1.852 4.828 0 1.992 0.48 3.516t1.23 2.461 1.887 1.57 2.203 0.914 2.402 0.422q-0.937 0.844-1.148 2.414-0.492 0.234-1.055 0.352t-1.336 0.117-1.535-0.504-1.301-1.465q-0.445-0.75-1.137-1.219t-1.16-0.562l-0.469-0.070q-0.492 0-0.68 0.105t-0.117 0.27 0.211 0.328 0.305 0.281l0.164 0.117q0.516 0.234 1.020 0.891t0.738 1.195l0.234 0.539q0.305 0.891 1.031 1.441t1.57 0.703 1.629 0.164 1.301-0.082l0.539-0.094q0 0.891 0.012 2.414t0.012 1.594q0 0.516-0.258 0.785t-0.516 0.305-0.773 0.035h-5.25q-2.789 0-4.77-1.98t-1.98-4.77v-22.5q0-2.789 1.98-4.77t4.77-1.98h22.5q2.789 0 4.77 1.98t1.98 4.77z"></path>
</svg>
