<?xml version="1.0" encoding="UTF-8" standalone="no"?>
<!-- Generator: Adobe Illustrator 16.0.0, SVG Export Plug-In . SVG Version: 6.00 Build 0)  -->

<svg
   xmlns:dc="http://purl.org/dc/elements/1.1/"
   xmlns:cc="http://creativecommons.org/ns#"
   xmlns:rdf="http://www.w3.org/1999/02/22-rdf-syntax-ns#"
   xmlns:svg="http://www.w3.org/2000/svg"
   xmlns="http://www.w3.org/2000/svg"
   xmlns:sodipodi="http://sodipodi.sourceforge.net/DTD/sodipodi-0.dtd"
   xmlns:inkscape="http://www.inkscape.org/namespaces/inkscape"
   version="1.1"
   id="Capa_1"
   x="0px"
   y="0px"
   width="42"
   height="42"
   viewBox="0 0 42 42"
   xml:space="preserve"
   inkscape:version="0.91 r13725"
   sodipodi:docname="steam.svg"><metadata
     id="metadata41"><rdf:RDF><cc:Work
         rdf:about=""><dc:format>image/svg+xml</dc:format><dc:type
           rdf:resource="http://purl.org/dc/dcmitype/StillImage" /><dc:title></dc:title></cc:Work></rdf:RDF></metadata><defs
     id="defs39" /><sodipodi:namedview
     pagecolor="#ffffff"
     bordercolor="#666666"
     borderopacity="1"
     objecttolerance="10"
     gridtolerance="10"
     guidetolerance="10"
     inkscape:pageopacity="0"
     inkscape:pageshadow="2"
     inkscape:window-width="958"
     inkscape:window-height="1060"
     id="namedview37"
     showgrid="false"
     fit-margin-top="1"
     fit-margin-left="1"
     fit-margin-right="1"
     fit-margin-bottom="1"
     inkscape:zoom="5.2149125"
     inkscape:cx="43.734076"
     inkscape:cy="29.277138"
     inkscape:window-x="960"
     inkscape:window-y="18"
     inkscape:window-maximized="0"
     inkscape:current-layer="g3" /><g
     id="g3"
     transform="matrix(0.078125,0,0,0.078125,1,1)"
     style="stroke:none;stroke-opacity:1"><path
       d="m 151.961,418.005 c 13.572,0 26.893,-6.567 34.986,-18.708 12.867,-19.301 7.651,-45.377 -11.649,-58.244 l -33.037,-22.022 c 5.654,-1.54 11.597,-2.38 17.739,-2.38 37.196,0 67.348,30.152 67.348,67.351 0,37.199 -30.153,67.349 -67.349,67.349 -36.202,0 -65.722,-28.564 -67.274,-64.387 l 35.977,23.984 c 7.161,4.773 15.253,7.057 23.259,7.057 z M 426.67,0 C 473.607,0 512,38.406 512,85.344 l 0,341.314 C 512,473.626 473.607,512 426.67,512 L 85.344,512 C 38.406,512 0,473.625 0,426.659 l 0,-101.514 60.667,40.444 c -5.826,31.587 3.469,65.415 27.899,89.845 39.452,39.452 103.415,39.452 142.868,0 24.234,-24.231 33.575,-57.715 28.039,-89.082 L 384,254.858 l 0,-0.001 c 23.123,-3.319 45.408,-13.872 63.197,-31.661 43.736,-43.738 43.736,-114.653 0,-158.392 -43.74,-43.739 -114.654,-43.739 -158.393,0 C 271.015,82.593 260.46,104.877 257.142,128 l 0,0 -102.346,155.115 c -15.924,0.816 -31.689,5.382 -45.863,13.695 L 0,224.189 0,85.344 C 0,38.406 38.405,0 85.343,0 L 426.67,0 Z M 448,144 c 0,-44.183 -35.816,-80 -80,-80 -44.184,0 -80,35.817 -80,80 0,44.183 35.816,80 80,80 44.184,0 80,-35.817 80,-80 z m -128,0 c 0,-26.51 21.49,-48 48,-48 26.51,0 48,21.49 48,48 0,26.51 -21.49,48 -48,48 -26.51,0 -48,-21.49 -48,-48 z"
       id="path5"
       inkscape:connector-curvature="0"
       style="stroke:none;stroke-opacity:1;fill:#1b1817;fill-opacity:1" /></g><g
     id="g7"
     transform="translate(1,-471)" /><g
     id="g9"
     transform="translate(1,-471)" /><g
     id="g11"
     transform="translate(1,-471)" /><g
     id="g13"
     transform="translate(1,-471)" /><g
     id="g15"
     transform="translate(1,-471)" /><g
     id="g17"
     transform="translate(1,-471)" /><g
     id="g19"
     transform="translate(1,-471)" /><g
     id="g21"
     transform="translate(1,-471)" /><g
     id="g23"
     transform="translate(1,-471)" /><g
     id="g25"
     transform="translate(1,-471)" /><g
     id="g27"
     transform="translate(1,-471)" /><g
     id="g29"
     transform="translate(1,-471)" /><g
     id="g31"
     transform="translate(1,-471)" /><g
     id="g33"
     transform="translate(1,-471)" /><g
     id="g35"
     transform="translate(1,-471)" /></svg>