<svg xmlns="http://www.w3.org/2000/svg" viewBox="0 0 36 42"><path d="M6.75 3c-1.86 0-3.45.66-4.77 1.98C.66 6.301 0 7.89 0 9.75v9.969l9.566 3.937c.281-.185.58-.344.899-.474a5.271 5.271 0 012.252-.399l4.705-6.834a1.786 1.786 0 01-.002-.094c0-4.033 3.276-7.314 7.303-7.314 4.028 0 7.302 3.281 7.302 7.314 0 4.033-3.274 7.317-7.302 7.317-.055 0-.112-.002-.166-.004l-6.73 4.81a5.333 5.333 0 01-7.38 5.07 5.328 5.328 0 01-3.152-3.767L0 26.271v5.979c0 1.86.66 3.45 1.98 4.77C3.301 38.34 4.89 39 6.75 39h22.5c1.86 0 3.45-.66 4.77-1.98 1.32-1.321 1.98-2.91 1.98-4.77V9.75c0-1.86-.66-3.45-1.98-4.77C32.699 3.66 31.11 3 29.25 3H6.75zm17.973 7.982a4.876 4.876 0 00-4.866 4.873 4.875 4.875 0 004.866 4.874 4.875 4.875 0 004.867-4.874 4.877 4.877 0 00-4.867-4.873zm.007 1.204a3.66 3.66 0 013.657 3.662 3.658 3.658 0 01-3.657 3.66 3.656 3.656 0 01-3.652-3.66 3.658 3.658 0 013.652-3.662zM12.54 24.002a4.12 4.12 0 00-1.495.27l2.457 1.017a3.032 3.032 0 011.63 3.965 3.03 3.03 0 01-3.96 1.635l-2.377-.987a4.089 4.089 0 002.117 2.02 4.116 4.116 0 005.379-2.219 4.101 4.101 0 00.008-3.152 4.083 4.083 0 00-2.22-2.235 4.082 4.082 0 00-1.54-.314z"/></svg>