<?xml version="1.0" standalone="no"?><!DOCTYPE svg PUBLIC "-//W3C//DTD SVG 1.1//EN" "http://www.w3.org/Graphics/SVG/1.1/DTD/svg11.dtd"><svg width="101px" height="42px" version="1.1" xmlns="http://www.w3.org/2000/svg" xmlns:xlink="http://www.w3.org/1999/xlink" xml:space="preserve" style="fill-rule:evenodd;clip-rule:evenodd;stroke-linejoin:round;stroke-miterlimit:1.41421;"><path d="M100.4,8.8c0,-4.858 -3.942,-8.8 -8.8,-8.8l-82.8,0c-4.858,0 -8.8,3.942 -8.8,8.8l0,24.4c0,4.858 3.942,8.8 8.8,8.8l82.8,0c4.858,0 8.8,-3.942 8.8,-8.8l0,-24.4Z" style="fill:#000;"/><g><path d="M38.312,33.092l-3.525,0l0,-2.042c-1.337,1.533 -2.475,2.308 -3.708,2.308c-1.087,0 -1.837,-0.512 -2.217,-1.437c-0.229,-0.563 -0.391,-1.438 -0.391,-2.729l0,-14.855l3.529,0l0,15.23c0.083,0.52 0.304,0.708 0.754,0.708c0.675,0 1.283,-0.583 2.033,-1.638l0,-14.3l3.525,0l0,18.755Z" style="fill:#fff;fill-rule:nonzero;"/><path d="M22.342,27.521c0.187,1.858 -0.388,2.779 -1.484,2.779c-1.096,0 -1.671,-0.921 -1.487,-2.779l0,-7.429c-0.184,-1.855 0.391,-2.725 1.487,-2.725c1.096,0 1.671,0.87 1.488,2.725l-0.004,7.429ZM25.871,20.467c0,-2.005 -0.4,-3.513 -1.113,-4.459c-0.941,-1.283 -2.416,-1.808 -3.9,-1.808c-1.683,0 -2.962,0.525 -3.9,1.808c-0.725,0.946 -1.112,2.467 -1.112,4.475l-0.004,6.667c0,1.996 0.345,3.371 1.07,4.308c0.938,1.279 2.459,1.959 3.946,1.959c1.484,0 3.034,-0.68 3.975,-1.959c0.709,-0.937 1.038,-2.312 1.038,-4.308l0,-6.683Z" style="fill:#fff;fill-rule:nonzero;"/><path d="M11.942,22.879l0,10.213l-3.713,0l0,-10.213c0,0 -3.85,-12.521 -4.641,-14.858l3.9,0l2.604,9.783l2.595,-9.783l3.9,0l-4.645,14.858Z" style="fill:#fff;fill-rule:nonzero;"/><path d="M74.608,17.321c-0.554,0 -1.187,0.291 -1.75,0.846l-0.004,11.262c0.563,0.563 1.2,0.846 1.754,0.846c0.967,0 1.404,-0.708 1.404,-2.567l0,-7.987c0,-1.854 -0.437,-2.4 -1.404,-2.4Z" style="fill:#fff;fill-rule:nonzero;"/><path d="M88.458,19.55c0,-1.713 -0.446,-2.229 -1.558,-2.229c-1.125,0 -1.6,0.471 -1.6,2.208l0,2.054l3.158,-0.004l0,-2.029Z" style="fill:#fff;fill-rule:nonzero;"/><path d="M86.929,30.275c0.829,0 1.313,-0.45 1.504,-1.346c0.029,-0.183 0.025,-0.987 0.025,-2.337l3.529,0l0,0.529c0,1.083 -0.091,1.85 -0.12,2.187c-0.113,0.746 -0.38,1.417 -0.788,2.013c-0.929,1.35 -2.308,2.012 -4.067,2.012c-1.758,0 -3.095,-0.633 -4.066,-1.9c-0.717,-0.929 -1.175,-2.312 -1.175,-4.283l0,-6.5c0,-1.983 0.416,-3.517 1.133,-4.454c0.971,-1.271 2.308,-1.942 4.025,-1.942c1.688,0 3.025,0.671 3.971,1.942c0.7,0.937 1.092,2.387 1.092,4.371l0,3.8l-6.692,0l0,3.333c-0.013,1.712 0.475,2.575 1.629,2.575ZM79.542,27.521c0,1.716 -0.146,2.929 -0.371,3.716c-0.45,1.38 -1.425,2.096 -2.767,2.096c-1.196,0 -2.421,-0.721 -3.542,-2.108l-0.004,1.867l-3.346,0l0,-24.884l3.346,0l-0.004,8.113c1.083,-1.338 2.317,-2.096 3.55,-2.096c1.342,0 2.242,0.771 2.688,2.162c0.225,0.746 0.45,1.95 0.45,3.705l0,7.429ZM66.729,33.092l-3.529,0l0,-2.042c-1.338,1.533 -2.471,2.308 -3.708,2.308c-1.084,0 -1.838,-0.512 -2.213,-1.437c-0.229,-0.563 -0.392,-1.438 -0.392,-2.729l0,-14.671l3.525,0l0,15.046c0.084,0.52 0.305,0.708 0.755,0.708c0.675,0 1.287,-0.583 2.033,-1.638l0,-14.116l3.529,0l0,18.571ZM53.358,33.092l-3.716,0l0,-21.355l-3.9,0l0,-3.525l11.7,-0.004l0,3.529l-4.084,0l0,21.355ZM96.079,10.046c0,0 -0.542,-3.804 -2.204,-5.479c-2.108,-2.196 -4.475,-2.209 -5.558,-2.338c-7.759,-0.558 -19.4,-0.558 -19.4,-0.558l-0.025,0c0,0 -11.638,0 -19.4,0.558c-1.084,0.129 -3.446,0.142 -5.555,2.338c-1.666,1.675 -2.204,5.479 -2.204,5.479c0,0 -0.558,4.471 -0.558,8.937l0,4.188c0,4.466 0.558,8.933 0.558,8.933c0,0 0.538,3.804 2.204,5.483c2.109,2.196 4.88,2.13 6.113,2.359c4.437,0.425 18.854,0.554 18.854,0.554c0,0 11.654,-0.017 19.413,-0.575c1.083,-0.129 3.45,-0.142 5.558,-2.338c1.662,-1.679 2.204,-5.483 2.204,-5.483c0,0 0.554,-4.467 0.554,-8.933l0,-4.188c0,-4.466 -0.554,-8.937 -0.554,-8.937Z" style="fill:#fff;fill-rule:nonzero;"/></g></svg>