<svg xmlns="http://www.w3.org/2000/svg" viewBox="0 0 36 42"><path d="M21.539 30.539v-3.68q0-1.172-.68-1.172-.398 0-.773.375v5.25q.375.375.773.375.68 0 .68-1.148zm4.313-2.859h1.547v-.797q0-1.195-.773-1.195t-.773 1.195v.797zm-13.383-6.235v1.641h-1.875V33H8.86v-9.914H7.032v-1.641h5.437zm4.711 2.953V33h-1.57v-.937q-.914 1.055-1.781 1.055-.773 0-.984-.656-.141-.375-.141-1.266v-6.797h1.547v6.328q0 .562.023.609.023.352.352.352.469 0 .984-.727v-6.563h1.57zM23.086 27v3.422q0 1.219-.164 1.711-.281.984-1.242.984-.82 0-1.594-.961V33h-1.57V21.445h1.57v3.773q.75-.937 1.594-.937.961 0 1.242.984.164.492.164 1.734zm5.883 3.023v.211q0 .68-.047 1.008-.07.516-.352.937-.633.937-1.875.937-1.219 0-1.898-.891-.492-.633-.492-2.016v-3.023q0-1.383.469-2.016.68-.891 1.875-.891t1.828.891q.492.656.492 2.016v1.781h-3.117v1.523q0 1.195.797 1.195.562 0 .703-.609 0-.023.012-.164t.012-.387v-.504h1.594zM18.398 10.711v3.656q0 1.195-.75 1.195t-.75-1.195v-3.656q0-1.219.75-1.219t.75 1.219zm12.493 16.711q0-4.148-.445-6.094-.234-1.031-1.008-1.723t-1.781-.809q-3.187-.352-9.656-.352-6.445 0-9.633.352-1.031.117-1.793.809t-.996 1.723q-.469 2.039-.469 6.094 0 4.125.469 6.094.234 1.008.996 1.711t1.77.82q3.211.352 9.656.352t9.656-.352q1.008-.117 1.77-.82t.996-1.711q.469-1.969.469-6.094zM13.195 12.164l2.109-6.938h-1.758l-1.195 4.57-1.242-4.57H9.281l.562 1.617.539 1.617q.82 2.414 1.078 3.703v4.711h1.734v-4.711zm6.774 1.898v-3.047q0-1.359-.492-2.039-.68-.891-1.828-.891-1.195 0-1.828.891-.492.68-.492 2.039v3.047q0 1.359.492 2.039.633.891 1.828.891 1.148 0 1.828-.891.492-.633.492-2.039zm4.242 2.813h1.57V8.203h-1.57v6.633q-.516.727-.984.727-.352 0-.375-.375-.023-.047-.023-.609V8.204h-1.57v6.867q0 .867.141 1.289.258.633 1.008.633.844 0 1.805-1.055v.937zM36 9.75v22.5q0 2.789-1.98 4.77T29.25 39H6.75q-2.789 0-4.77-1.98T0 32.25V9.75q0-2.789 1.98-4.77T6.75 3h22.5q2.789 0 4.77 1.98T36 9.75z"/></svg>