<?xml version="1.0" encoding="utf-8"?>
<!-- Generated by IcoMoon.io -->
<!DOCTYPE svg PUBLIC "-//W3C//DTD SVG 1.1//EN" "http://www.w3.org/Graphics/SVG/1.1/DTD/svg11.dtd">
<svg version="1.1" xmlns="http://www.w3.org/2000/svg" xmlns:xlink="http://www.w3.org/1999/xlink" width="36px" height="42px" viewBox="0 0 36 42">
<path fill="#000" d="M21.539 30.539v-3.68q0-1.172-0.68-1.172-0.398 0-0.773 0.375v5.25q0.375 0.375 0.773 0.375 0.68 0 0.68-1.148zM25.852 27.68h1.547v-0.797q0-1.195-0.773-1.195t-0.773 1.195v0.797zM12.469 21.445v1.641h-1.875v9.914h-1.734v-9.914h-1.828v-1.641h5.437zM17.18 24.398v8.602h-1.57v-0.937q-0.914 1.055-1.781 1.055-0.773 0-0.984-0.656-0.141-0.375-0.141-1.266v-6.797h1.547v6.328q0 0.562 0.023 0.609 0.023 0.352 0.352 0.352 0.469 0 0.984-0.727v-6.563h1.57zM23.086 27v3.422q0 1.219-0.164 1.711-0.281 0.984-1.242 0.984-0.82 0-1.594-0.961v0.844h-1.57v-11.555h1.57v3.773q0.75-0.937 1.594-0.937 0.961 0 1.242 0.984 0.164 0.492 0.164 1.734zM28.969 30.023v0.211q0 0.68-0.047 1.008-0.070 0.516-0.352 0.937-0.633 0.937-1.875 0.937-1.219 0-1.898-0.891-0.492-0.633-0.492-2.016v-3.023q0-1.383 0.469-2.016 0.68-0.891 1.875-0.891t1.828 0.891q0.492 0.656 0.492 2.016v1.781h-3.117v1.523q0 1.195 0.797 1.195 0.562 0 0.703-0.609 0-0.023 0.012-0.164t0.012-0.387v-0.504h1.594zM18.398 10.711v3.656q0 1.195-0.75 1.195t-0.75-1.195v-3.656q0-1.219 0.75-1.219t0.75 1.219zM30.891 27.422q0-4.148-0.445-6.094-0.234-1.031-1.008-1.723t-1.781-0.809q-3.187-0.352-9.656-0.352-6.445 0-9.633 0.352-1.031 0.117-1.793 0.809t-0.996 1.723q-0.469 2.039-0.469 6.094 0 4.125 0.469 6.094 0.234 1.008 0.996 1.711t1.77 0.82q3.211 0.352 9.656 0.352t9.656-0.352q1.008-0.117 1.77-0.82t0.996-1.711q0.469-1.969 0.469-6.094zM13.195 12.164l2.109-6.938h-1.758l-1.195 4.57-1.242-4.57h-1.828l0.562 1.617t0.539 1.617q0.82 2.414 1.078 3.703v4.711h1.734v-4.711zM19.969 14.062v-3.047q0-1.359-0.492-2.039-0.68-0.891-1.828-0.891-1.195 0-1.828 0.891-0.492 0.68-0.492 2.039v3.047q0 1.359 0.492 2.039 0.633 0.891 1.828 0.891 1.148 0 1.828-0.891 0.492-0.633 0.492-2.039zM24.211 16.875h1.57v-8.672h-1.57v6.633q-0.516 0.727-0.984 0.727-0.352 0-0.375-0.375-0.023-0.047-0.023-0.609v-6.375h-1.57v6.867q0 0.867 0.141 1.289 0.258 0.633 1.008 0.633 0.844 0 1.805-1.055v0.937zM36 9.75v22.5q0 2.789-1.98 4.77t-4.77 1.98h-22.5q-2.789 0-4.77-1.98t-1.98-4.77v-22.5q0-2.789 1.98-4.77t4.77-1.98h22.5q2.789 0 4.77 1.98t1.98 4.77z"></path>
</svg>
