<svg xmlns="http://www.w3.org/2000/svg" viewBox="0 0 36 42"><path d="M12 30q0-1.242-.879-2.121T9 27t-2.121.879T6 30t.879 2.121T9 33t2.121-.879T12 30zm8.227 2.203q-.305-5.437-4.148-9.281t-9.281-4.148q-.328-.023-.562.211t-.234.539v3q0 .305.199.516t.504.234q3.609.258 6.187 2.836t2.836 6.187q.023.305.234.504t.516.199h3q.305 0 .539-.234t.211-.562zm9 .024q-.117-3.609-1.313-6.973t-3.27-6.094-4.805-4.805-6.094-3.27-6.973-1.313q-.328-.023-.539.211-.234.234-.234.539v3q0 .305.211.516t.516.234q4.781.164 8.859 2.613t6.527 6.527 2.613 8.859q.023.305.234.516t.516.211h3q.305 0 .539-.234.258-.211.211-.539zM36 9.75v22.5q0 2.789-1.98 4.77T29.25 39H6.75q-2.789 0-4.77-1.98T0 32.25V9.75q0-2.789 1.98-4.77T6.75 3h22.5q2.789 0 4.77 1.98T36 9.75z"/></svg>